<svg width="1532" height="512" viewBox="0 0 1532 512" fill="none" xmlns="http://www.w3.org/2000/svg">
<rect width="512" height="512" rx="256" fill="#71E83A"/>
<path d="M386.013 176.917L353.661 195.489L257.205 142.169L157.753 199.683V236.828L257.205 181.71L318.314 217.057L282.966 236.828L257.205 221.85L122.405 298.536V176.917L257.205 100.83L386.013 176.917Z" fill="#12121B"/>
<path d="M126.001 335.081L158.353 316.509L254.809 369.83L354.261 312.315V275.171L254.809 330.288L193.7 294.941L229.048 275.171L254.809 290.148L389.608 213.462V335.081L254.809 411.168L126.001 335.081Z" fill="#12121B"/>
<mask id="path-4-outside-1_366_3150" maskUnits="userSpaceOnUse" x="617.022" y="205" width="900" height="127" fill="black">
<rect fill="white" x="617.022" y="205" width="900" height="127"/>
<path d="M623.768 296.363C623.768 295.106 624.217 294.028 625.115 293.13C626.013 292.232 627.091 291.783 628.348 291.783H637.239C639.754 291.783 641.191 293.04 641.55 295.555C642.448 299.327 644.334 302.56 647.208 305.254C650.082 307.769 653.495 309.026 657.446 309.026H703.787C708.277 309.026 712.049 307.41 715.103 304.177C718.156 300.764 719.683 296.812 719.683 292.322C719.683 287.832 718.156 283.97 715.103 280.737C712.049 277.504 708.277 275.887 703.787 275.887H659.332C654.842 275.887 650.621 275.079 646.669 273.462C642.897 271.846 639.485 269.601 636.431 266.727C633.557 263.853 631.222 260.53 629.426 256.758C627.809 252.806 627.001 248.585 627.001 244.095C627.001 239.605 627.809 235.474 629.426 231.702C631.222 227.75 633.557 224.337 636.431 221.463C639.485 218.41 642.897 216.075 646.669 214.458C650.621 212.662 654.842 211.764 659.332 211.764H703.248C707.2 211.764 710.972 212.483 714.564 213.92C718.336 215.357 721.569 217.332 724.263 219.847C727.137 222.362 729.472 225.325 731.268 228.738C733.244 232.151 734.501 235.833 735.04 239.784C735.04 242.838 733.514 244.365 730.46 244.365H721.838C719.144 244.365 717.618 243.107 717.258 240.593C716.54 237.18 714.833 234.396 712.139 232.24C709.445 229.905 706.302 228.738 702.709 228.738H659.063C654.931 228.738 651.429 230.265 648.555 233.318C645.681 236.192 644.244 239.694 644.244 243.826C644.244 247.957 645.681 251.549 648.555 254.603C651.429 257.656 654.931 259.183 659.063 259.183H703.518C708.188 259.183 712.588 260.081 716.719 261.877C720.851 263.494 724.443 265.829 727.496 268.882C730.55 271.756 732.975 275.258 734.771 279.39C736.567 283.341 737.465 287.652 737.465 292.322C737.465 296.992 736.567 301.393 734.771 305.524C732.975 309.475 730.55 312.978 727.496 316.031C724.443 319.085 720.851 321.51 716.719 323.306C712.588 325.102 708.188 326 703.518 326H657.177C652.866 326 648.735 325.282 644.783 323.845C641.011 322.228 637.599 320.073 634.545 317.378C631.671 314.684 629.246 311.541 627.271 307.949C625.295 304.356 624.127 300.495 623.768 296.363ZM805.425 216.344C805.964 215.087 806.862 214.009 808.119 213.111C809.556 212.213 810.903 211.764 812.161 211.764H821.86C823.117 211.764 824.375 212.213 825.632 213.111C827.069 214.009 828.147 215.087 828.865 216.344L884.636 321.42C884.995 322.497 885.175 323.216 885.175 323.575C885.175 325.192 884.277 326 882.481 326H870.087C868.111 326 866.495 324.922 865.237 322.767L852.574 299.058H800.037C798.241 299.058 797.342 298.249 797.342 296.633C797.342 296.274 797.522 295.555 797.881 294.477L802.192 286.125C803.449 283.97 805.066 282.892 807.042 282.892H843.953L816.741 229.816L769.322 322.767C768.963 323.665 768.245 324.473 767.167 325.192C766.269 325.731 765.371 326 764.473 326H752.888C751.091 326 750.193 325.192 750.193 323.575C750.193 323.216 750.373 322.497 750.732 321.42L805.425 216.344ZM942.126 216.344C942.665 215.087 943.563 214.009 944.821 213.111C946.258 212.213 947.605 211.764 948.862 211.764H958.561C959.819 211.764 961.076 212.213 962.333 213.111C963.77 214.009 964.848 215.087 965.566 216.344L1021.34 321.42C1021.7 322.497 1021.88 323.216 1021.88 323.575C1021.88 325.192 1020.98 326 1019.18 326H1006.79C1004.81 326 1003.2 324.922 1001.94 322.767L989.276 299.058H936.738C934.942 299.058 934.044 298.249 934.044 296.633C934.044 296.274 934.223 295.555 934.582 294.477L938.893 286.125C940.151 283.97 941.767 282.892 943.743 282.892H980.654L953.442 229.816L906.024 322.767C905.664 323.665 904.946 324.473 903.868 325.192C902.97 325.731 902.072 326 901.174 326H889.589C887.792 326 886.894 325.192 886.894 323.575C886.894 323.216 887.074 322.497 887.433 321.42L942.126 216.344ZM1035.45 296.363C1035.45 295.106 1035.9 294.028 1036.8 293.13C1037.7 292.232 1038.77 291.783 1040.03 291.783H1048.92C1051.44 291.783 1052.87 293.04 1053.23 295.555C1054.13 299.327 1056.02 302.56 1058.89 305.254C1061.76 307.769 1065.18 309.026 1069.13 309.026H1115.47C1119.96 309.026 1123.73 307.41 1126.78 304.177C1129.84 300.764 1131.37 296.812 1131.37 292.322C1131.37 287.832 1129.84 283.97 1126.78 280.737C1123.73 277.504 1119.96 275.887 1115.47 275.887H1071.01C1066.52 275.887 1062.3 275.079 1058.35 273.462C1054.58 271.846 1051.17 269.601 1048.11 266.727C1045.24 263.853 1042.9 260.53 1041.11 256.758C1039.49 252.806 1038.68 248.585 1038.68 244.095C1038.68 239.605 1039.49 235.474 1041.11 231.702C1042.9 227.75 1045.24 224.337 1048.11 221.463C1051.17 218.41 1054.58 216.075 1058.35 214.458C1062.3 212.662 1066.52 211.764 1071.01 211.764H1114.93C1118.88 211.764 1122.65 212.483 1126.25 213.92C1130.02 215.357 1133.25 217.332 1135.95 219.847C1138.82 222.362 1141.15 225.325 1142.95 228.738C1144.93 232.151 1146.18 235.833 1146.72 239.784C1146.72 242.838 1145.2 244.365 1142.14 244.365H1133.52C1130.83 244.365 1129.3 243.107 1128.94 240.593C1128.22 237.18 1126.52 234.396 1123.82 232.24C1121.13 229.905 1117.98 228.738 1114.39 228.738H1070.74C1066.61 228.738 1063.11 230.265 1060.24 233.318C1057.36 236.192 1055.93 239.694 1055.93 243.826C1055.93 247.957 1057.36 251.549 1060.24 254.603C1063.11 257.656 1066.61 259.183 1070.74 259.183H1115.2C1119.87 259.183 1124.27 260.081 1128.4 261.877C1132.53 263.494 1136.13 265.829 1139.18 268.882C1142.23 271.756 1144.66 275.258 1146.45 279.39C1148.25 283.341 1149.15 287.652 1149.15 292.322C1149.15 296.992 1148.25 301.393 1146.45 305.524C1144.66 309.475 1142.23 312.978 1139.18 316.031C1136.13 319.085 1132.53 321.51 1128.4 323.306C1124.27 325.102 1119.87 326 1115.2 326H1068.86C1064.55 326 1060.42 325.282 1056.47 323.845C1052.69 322.228 1049.28 320.073 1046.23 317.378C1043.35 314.684 1040.93 311.541 1038.95 307.949C1036.98 304.356 1035.81 300.495 1035.45 296.363ZM1249.15 228.738C1249.15 226.762 1249.59 224.786 1250.49 222.811C1251.57 220.655 1252.92 218.769 1254.53 217.153C1256.15 215.536 1257.95 214.279 1259.92 213.381C1262.08 212.303 1264.14 211.764 1266.12 211.764H1353.68C1355.84 211.764 1357.9 212.303 1359.88 213.381C1361.85 214.279 1363.65 215.536 1365.27 217.153C1366.88 218.769 1368.14 220.655 1369.04 222.811C1370.12 224.786 1370.66 226.762 1370.66 228.738V309.026C1370.66 311.002 1370.12 313.068 1369.04 315.223C1368.14 317.199 1366.88 318.995 1365.27 320.612C1363.65 322.228 1361.85 323.575 1359.88 324.653C1357.9 325.551 1355.84 326 1353.68 326H1266.12C1264.14 326 1262.08 325.551 1259.92 324.653C1257.95 323.575 1256.15 322.228 1254.53 320.612C1252.92 318.995 1251.57 317.199 1250.49 315.223C1249.59 313.068 1249.15 311.002 1249.15 309.026V228.738ZM1267.74 309.026H1352.07V228.738H1267.74V309.026ZM1396.88 296.363C1396.88 295.106 1397.33 294.028 1398.23 293.13C1399.12 292.232 1400.2 291.783 1401.46 291.783H1410.35C1412.86 291.783 1414.3 293.04 1414.66 295.555C1415.56 299.327 1417.44 302.56 1420.32 305.254C1423.19 307.769 1426.6 309.026 1430.56 309.026H1476.9C1481.39 309.026 1485.16 307.41 1488.21 304.177C1491.27 300.764 1492.79 296.812 1492.79 292.322C1492.79 287.832 1491.27 283.97 1488.21 280.737C1485.16 277.504 1481.39 275.887 1476.9 275.887H1432.44C1427.95 275.887 1423.73 275.079 1419.78 273.462C1416.01 271.846 1412.59 269.601 1409.54 266.727C1406.67 263.853 1404.33 260.53 1402.54 256.758C1400.92 252.806 1400.11 248.585 1400.11 244.095C1400.11 239.605 1400.92 235.474 1402.54 231.702C1404.33 227.75 1406.67 224.337 1409.54 221.463C1412.59 218.41 1416.01 216.075 1419.78 214.458C1423.73 212.662 1427.95 211.764 1432.44 211.764H1476.36C1480.31 211.764 1484.08 212.483 1487.67 213.92C1491.45 215.357 1494.68 217.332 1497.37 219.847C1500.25 222.362 1502.58 225.325 1504.38 228.738C1506.35 232.151 1507.61 235.833 1508.15 239.784C1508.15 242.838 1506.62 244.365 1503.57 244.365H1494.95C1492.25 244.365 1490.73 243.107 1490.37 240.593C1489.65 237.18 1487.94 234.396 1485.25 232.24C1482.56 229.905 1479.41 228.738 1475.82 228.738H1432.17C1428.04 228.738 1424.54 230.265 1421.67 233.318C1418.79 236.192 1417.35 239.694 1417.35 243.826C1417.35 247.957 1418.79 251.549 1421.67 254.603C1424.54 257.656 1428.04 259.183 1432.17 259.183H1476.63C1481.3 259.183 1485.7 260.081 1489.83 261.877C1493.96 263.494 1497.55 265.829 1500.61 268.882C1503.66 271.756 1506.08 275.258 1507.88 279.39C1509.68 283.341 1510.58 287.652 1510.58 292.322C1510.58 296.992 1509.68 301.393 1507.88 305.524C1506.08 309.475 1503.66 312.978 1500.61 316.031C1497.55 319.085 1493.96 321.51 1489.83 323.306C1485.7 325.102 1481.3 326 1476.63 326H1430.29C1425.98 326 1421.85 325.282 1417.89 323.845C1414.12 322.228 1410.71 320.073 1407.66 317.378C1404.78 314.684 1402.36 311.541 1400.38 307.949C1398.41 304.356 1397.24 300.495 1396.88 296.363Z"/>
</mask>
<path d="M623.768 296.363C623.768 295.106 624.217 294.028 625.115 293.13C626.013 292.232 627.091 291.783 628.348 291.783H637.239C639.754 291.783 641.191 293.04 641.55 295.555C642.448 299.327 644.334 302.56 647.208 305.254C650.082 307.769 653.495 309.026 657.446 309.026H703.787C708.277 309.026 712.049 307.41 715.103 304.177C718.156 300.764 719.683 296.812 719.683 292.322C719.683 287.832 718.156 283.97 715.103 280.737C712.049 277.504 708.277 275.887 703.787 275.887H659.332C654.842 275.887 650.621 275.079 646.669 273.462C642.897 271.846 639.485 269.601 636.431 266.727C633.557 263.853 631.222 260.53 629.426 256.758C627.809 252.806 627.001 248.585 627.001 244.095C627.001 239.605 627.809 235.474 629.426 231.702C631.222 227.75 633.557 224.337 636.431 221.463C639.485 218.41 642.897 216.075 646.669 214.458C650.621 212.662 654.842 211.764 659.332 211.764H703.248C707.2 211.764 710.972 212.483 714.564 213.92C718.336 215.357 721.569 217.332 724.263 219.847C727.137 222.362 729.472 225.325 731.268 228.738C733.244 232.151 734.501 235.833 735.04 239.784C735.04 242.838 733.514 244.365 730.46 244.365H721.838C719.144 244.365 717.618 243.107 717.258 240.593C716.54 237.18 714.833 234.396 712.139 232.24C709.445 229.905 706.302 228.738 702.709 228.738H659.063C654.931 228.738 651.429 230.265 648.555 233.318C645.681 236.192 644.244 239.694 644.244 243.826C644.244 247.957 645.681 251.549 648.555 254.603C651.429 257.656 654.931 259.183 659.063 259.183H703.518C708.188 259.183 712.588 260.081 716.719 261.877C720.851 263.494 724.443 265.829 727.496 268.882C730.55 271.756 732.975 275.258 734.771 279.39C736.567 283.341 737.465 287.652 737.465 292.322C737.465 296.992 736.567 301.393 734.771 305.524C732.975 309.475 730.55 312.978 727.496 316.031C724.443 319.085 720.851 321.51 716.719 323.306C712.588 325.102 708.188 326 703.518 326H657.177C652.866 326 648.735 325.282 644.783 323.845C641.011 322.228 637.599 320.073 634.545 317.378C631.671 314.684 629.246 311.541 627.271 307.949C625.295 304.356 624.127 300.495 623.768 296.363ZM805.425 216.344C805.964 215.087 806.862 214.009 808.119 213.111C809.556 212.213 810.903 211.764 812.161 211.764H821.86C823.117 211.764 824.375 212.213 825.632 213.111C827.069 214.009 828.147 215.087 828.865 216.344L884.636 321.42C884.995 322.497 885.175 323.216 885.175 323.575C885.175 325.192 884.277 326 882.481 326H870.087C868.111 326 866.495 324.922 865.237 322.767L852.574 299.058H800.037C798.241 299.058 797.342 298.249 797.342 296.633C797.342 296.274 797.522 295.555 797.881 294.477L802.192 286.125C803.449 283.97 805.066 282.892 807.042 282.892H843.953L816.741 229.816L769.322 322.767C768.963 323.665 768.245 324.473 767.167 325.192C766.269 325.731 765.371 326 764.473 326H752.888C751.091 326 750.193 325.192 750.193 323.575C750.193 323.216 750.373 322.497 750.732 321.42L805.425 216.344ZM942.126 216.344C942.665 215.087 943.563 214.009 944.821 213.111C946.258 212.213 947.605 211.764 948.862 211.764H958.561C959.819 211.764 961.076 212.213 962.333 213.111C963.77 214.009 964.848 215.087 965.566 216.344L1021.34 321.42C1021.7 322.497 1021.88 323.216 1021.88 323.575C1021.88 325.192 1020.98 326 1019.18 326H1006.79C1004.81 326 1003.2 324.922 1001.94 322.767L989.276 299.058H936.738C934.942 299.058 934.044 298.249 934.044 296.633C934.044 296.274 934.223 295.555 934.582 294.477L938.893 286.125C940.151 283.97 941.767 282.892 943.743 282.892H980.654L953.442 229.816L906.024 322.767C905.664 323.665 904.946 324.473 903.868 325.192C902.97 325.731 902.072 326 901.174 326H889.589C887.792 326 886.894 325.192 886.894 323.575C886.894 323.216 887.074 322.497 887.433 321.42L942.126 216.344ZM1035.45 296.363C1035.45 295.106 1035.9 294.028 1036.8 293.13C1037.7 292.232 1038.77 291.783 1040.03 291.783H1048.92C1051.44 291.783 1052.87 293.04 1053.23 295.555C1054.13 299.327 1056.02 302.56 1058.89 305.254C1061.76 307.769 1065.18 309.026 1069.13 309.026H1115.47C1119.96 309.026 1123.73 307.41 1126.78 304.177C1129.84 300.764 1131.37 296.812 1131.37 292.322C1131.37 287.832 1129.84 283.97 1126.78 280.737C1123.73 277.504 1119.96 275.887 1115.47 275.887H1071.01C1066.52 275.887 1062.3 275.079 1058.35 273.462C1054.58 271.846 1051.17 269.601 1048.11 266.727C1045.24 263.853 1042.9 260.53 1041.11 256.758C1039.49 252.806 1038.68 248.585 1038.68 244.095C1038.68 239.605 1039.49 235.474 1041.11 231.702C1042.9 227.75 1045.24 224.337 1048.11 221.463C1051.17 218.41 1054.58 216.075 1058.35 214.458C1062.3 212.662 1066.52 211.764 1071.01 211.764H1114.93C1118.88 211.764 1122.65 212.483 1126.25 213.92C1130.02 215.357 1133.25 217.332 1135.95 219.847C1138.82 222.362 1141.15 225.325 1142.95 228.738C1144.93 232.151 1146.18 235.833 1146.72 239.784C1146.72 242.838 1145.2 244.365 1142.14 244.365H1133.52C1130.83 244.365 1129.3 243.107 1128.94 240.593C1128.22 237.18 1126.52 234.396 1123.82 232.24C1121.13 229.905 1117.98 228.738 1114.39 228.738H1070.74C1066.61 228.738 1063.11 230.265 1060.24 233.318C1057.36 236.192 1055.93 239.694 1055.93 243.826C1055.93 247.957 1057.36 251.549 1060.24 254.603C1063.11 257.656 1066.61 259.183 1070.74 259.183H1115.2C1119.87 259.183 1124.27 260.081 1128.4 261.877C1132.53 263.494 1136.13 265.829 1139.18 268.882C1142.23 271.756 1144.66 275.258 1146.45 279.39C1148.25 283.341 1149.15 287.652 1149.15 292.322C1149.15 296.992 1148.25 301.393 1146.45 305.524C1144.66 309.475 1142.23 312.978 1139.18 316.031C1136.13 319.085 1132.53 321.51 1128.4 323.306C1124.27 325.102 1119.87 326 1115.2 326H1068.86C1064.55 326 1060.42 325.282 1056.47 323.845C1052.69 322.228 1049.28 320.073 1046.23 317.378C1043.35 314.684 1040.93 311.541 1038.95 307.949C1036.98 304.356 1035.81 300.495 1035.45 296.363ZM1249.15 228.738C1249.15 226.762 1249.59 224.786 1250.49 222.811C1251.57 220.655 1252.92 218.769 1254.53 217.153C1256.15 215.536 1257.95 214.279 1259.92 213.381C1262.08 212.303 1264.14 211.764 1266.12 211.764H1353.68C1355.84 211.764 1357.9 212.303 1359.88 213.381C1361.85 214.279 1363.65 215.536 1365.27 217.153C1366.88 218.769 1368.14 220.655 1369.04 222.811C1370.12 224.786 1370.66 226.762 1370.66 228.738V309.026C1370.66 311.002 1370.12 313.068 1369.04 315.223C1368.14 317.199 1366.88 318.995 1365.27 320.612C1363.65 322.228 1361.85 323.575 1359.88 324.653C1357.9 325.551 1355.84 326 1353.68 326H1266.12C1264.14 326 1262.08 325.551 1259.92 324.653C1257.95 323.575 1256.15 322.228 1254.53 320.612C1252.92 318.995 1251.57 317.199 1250.49 315.223C1249.59 313.068 1249.15 311.002 1249.15 309.026V228.738ZM1267.74 309.026H1352.07V228.738H1267.74V309.026ZM1396.88 296.363C1396.88 295.106 1397.33 294.028 1398.23 293.13C1399.12 292.232 1400.2 291.783 1401.46 291.783H1410.35C1412.86 291.783 1414.3 293.04 1414.66 295.555C1415.56 299.327 1417.44 302.56 1420.32 305.254C1423.19 307.769 1426.6 309.026 1430.56 309.026H1476.9C1481.39 309.026 1485.16 307.41 1488.21 304.177C1491.27 300.764 1492.79 296.812 1492.79 292.322C1492.79 287.832 1491.27 283.97 1488.21 280.737C1485.16 277.504 1481.39 275.887 1476.9 275.887H1432.44C1427.95 275.887 1423.73 275.079 1419.78 273.462C1416.01 271.846 1412.59 269.601 1409.54 266.727C1406.67 263.853 1404.33 260.53 1402.54 256.758C1400.92 252.806 1400.11 248.585 1400.11 244.095C1400.11 239.605 1400.92 235.474 1402.54 231.702C1404.33 227.75 1406.67 224.337 1409.54 221.463C1412.59 218.41 1416.01 216.075 1419.78 214.458C1423.73 212.662 1427.95 211.764 1432.44 211.764H1476.36C1480.31 211.764 1484.08 212.483 1487.67 213.92C1491.45 215.357 1494.68 217.332 1497.37 219.847C1500.25 222.362 1502.58 225.325 1504.38 228.738C1506.35 232.151 1507.61 235.833 1508.15 239.784C1508.15 242.838 1506.62 244.365 1503.57 244.365H1494.95C1492.25 244.365 1490.73 243.107 1490.37 240.593C1489.65 237.18 1487.94 234.396 1485.25 232.24C1482.56 229.905 1479.41 228.738 1475.82 228.738H1432.17C1428.04 228.738 1424.54 230.265 1421.67 233.318C1418.79 236.192 1417.35 239.694 1417.35 243.826C1417.35 247.957 1418.79 251.549 1421.67 254.603C1424.54 257.656 1428.04 259.183 1432.17 259.183H1476.63C1481.3 259.183 1485.7 260.081 1489.83 261.877C1493.96 263.494 1497.55 265.829 1500.61 268.882C1503.66 271.756 1506.08 275.258 1507.88 279.39C1509.68 283.341 1510.58 287.652 1510.58 292.322C1510.58 296.992 1509.68 301.393 1507.88 305.524C1506.08 309.475 1503.66 312.978 1500.61 316.031C1497.55 319.085 1493.96 321.51 1489.83 323.306C1485.7 325.102 1481.3 326 1476.63 326H1430.29C1425.98 326 1421.85 325.282 1417.89 323.845C1414.12 322.228 1410.71 320.073 1407.66 317.378C1404.78 314.684 1402.36 311.541 1400.38 307.949C1398.41 304.356 1397.24 300.495 1396.88 296.363Z" fill="white"/>
<path d="M623.768 296.363H617.827V296.621L617.849 296.878L623.768 296.363ZM625.115 293.13L620.914 288.929L620.914 288.929L625.115 293.13ZM641.55 295.555L635.668 296.395L635.707 296.666L635.77 296.931L641.55 295.555ZM647.208 305.254L643.144 309.589L643.219 309.659L643.296 309.726L647.208 305.254ZM715.103 304.177L719.422 308.256L719.477 308.198L719.531 308.138L715.103 304.177ZM715.103 280.737L710.783 284.816L710.783 284.816L715.103 280.737ZM646.669 273.462L644.329 278.923L644.374 278.943L644.42 278.961L646.669 273.462ZM636.431 266.727L632.23 270.928L632.293 270.992L632.359 271.053L636.431 266.727ZM629.426 256.758L623.927 259.008L623.99 259.162L624.062 259.312L629.426 256.758ZM629.426 231.702L624.017 229.243L623.99 229.302L623.965 229.361L629.426 231.702ZM636.431 221.463L640.632 225.665L640.632 225.665L636.431 221.463ZM646.669 214.458L649.01 219.92L649.069 219.894L649.128 219.867L646.669 214.458ZM714.564 213.92L712.357 219.436L712.403 219.454L712.449 219.472L714.564 213.92ZM724.263 219.847L720.209 224.19L720.279 224.256L720.351 224.318L724.263 219.847ZM731.268 228.738L726.011 231.505L726.066 231.611L726.126 231.715L731.268 228.738ZM735.04 239.784H740.982V239.381L740.927 238.982L735.04 239.784ZM717.258 240.593L723.14 239.752L723.112 239.559L723.072 239.369L717.258 240.593ZM712.139 232.24L708.248 236.73L708.336 236.807L708.428 236.88L712.139 232.24ZM648.555 233.318L652.756 237.519L652.82 237.456L652.882 237.39L648.555 233.318ZM648.555 254.603L652.882 250.531L652.882 250.531L648.555 254.603ZM716.719 261.877L714.35 267.326L714.452 267.37L714.554 267.41L716.719 261.877ZM727.496 268.882L723.295 273.083L723.359 273.147L723.424 273.209L727.496 268.882ZM734.771 279.39L729.322 281.759L729.342 281.804L729.362 281.848L734.771 279.39ZM734.771 305.524L740.18 307.982L740.2 307.938L740.22 307.893L734.771 305.524ZM727.496 316.031L723.295 311.83L723.295 311.83L727.496 316.031ZM716.719 323.306L714.35 317.857L716.719 323.306ZM644.783 323.845L642.443 329.306L642.596 329.371L642.753 329.428L644.783 323.845ZM634.545 317.378L630.481 321.713L630.547 321.774L630.614 321.834L634.545 317.378ZM627.271 307.949L622.065 310.812L622.065 310.812L627.271 307.949ZM629.71 296.363C629.71 296.458 629.689 296.658 629.589 296.897C629.49 297.136 629.368 297.28 629.317 297.332L620.914 288.929C618.914 290.929 617.827 293.512 617.827 296.363H629.71ZM629.316 297.332C629.265 297.383 629.121 297.505 628.882 297.604C628.643 297.704 628.443 297.725 628.348 297.725V285.842C625.497 285.842 622.914 286.929 620.914 288.929L629.316 297.332ZM628.348 297.725H637.239V285.842H628.348V297.725ZM637.239 297.725C637.522 297.725 636.96 297.783 636.29 297.198C635.629 296.619 635.623 296.075 635.668 296.395L647.432 294.715C647.118 292.521 646.214 290.091 644.115 288.255C642.009 286.412 639.472 285.842 637.239 285.842V297.725ZM635.77 296.931C636.943 301.855 639.435 306.112 643.144 309.589L651.272 300.92C649.233 299.009 647.954 296.799 647.33 294.179L635.77 296.931ZM643.296 309.726C647.293 313.224 652.11 314.968 657.446 314.968V303.085C654.879 303.085 652.871 302.314 651.121 300.783L643.296 309.726ZM657.446 314.968H703.787V303.085H657.446V314.968ZM703.787 314.968C709.894 314.968 715.234 312.691 719.422 308.256L710.783 300.097C708.865 302.129 706.661 303.085 703.787 303.085V314.968ZM719.531 308.138C723.538 303.66 725.625 298.306 725.625 292.322H713.742C713.742 295.319 712.775 297.868 710.675 300.215L719.531 308.138ZM725.625 292.322C725.625 286.331 723.529 281.005 719.422 276.657L710.783 284.816C712.784 286.935 713.742 289.332 713.742 292.322H725.625ZM719.422 276.657C715.234 272.223 709.894 269.946 703.787 269.946V281.829C706.661 281.829 708.865 282.785 710.783 284.816L719.422 276.657ZM703.787 269.946H659.332V281.829H703.787V269.946ZM659.332 269.946C655.573 269.946 652.12 269.273 648.919 267.963L644.42 278.961C649.122 280.885 654.111 281.829 659.332 281.829V269.946ZM649.01 268.001C645.891 266.665 643.061 264.808 640.503 262.4L632.359 271.053C635.908 274.393 639.904 277.027 644.329 278.923L649.01 268.001ZM640.632 262.525C638.251 260.144 636.304 257.382 634.79 254.204L624.062 259.312C626.141 263.678 628.864 267.562 632.23 270.928L640.632 262.525ZM634.925 254.508C633.616 251.307 632.943 247.855 632.943 244.095H621.06C621.06 249.316 622.003 254.305 623.927 259.008L634.925 254.508ZM632.943 244.095C632.943 240.333 633.616 237.007 634.887 234.042L623.965 229.361C622.003 233.94 621.06 238.876 621.06 244.095H632.943ZM634.835 234.16C636.356 230.813 638.296 228.001 640.632 225.665L632.23 217.262C628.819 220.673 626.088 224.687 624.017 229.243L634.835 234.16ZM640.632 225.665C643.18 223.117 645.968 221.223 649.01 219.92L644.329 208.997C639.826 210.927 635.789 213.703 632.23 217.262L640.632 225.665ZM649.128 219.867C652.28 218.434 655.66 217.706 659.332 217.706V205.823C654.024 205.823 648.961 206.89 644.211 209.049L649.128 219.867ZM659.332 217.706H703.248V205.823H659.332V217.706ZM703.248 217.706C706.46 217.706 709.482 218.286 712.357 219.436L716.771 208.403C712.461 206.679 707.939 205.823 703.248 205.823V217.706ZM712.449 219.472C715.571 220.661 718.128 222.248 720.209 224.19L728.317 215.503C725.01 212.416 721.101 210.052 716.679 208.367L712.449 219.472ZM720.351 224.318C722.67 226.347 724.551 228.732 726.011 231.505L736.526 225.971C734.393 221.919 731.604 218.376 728.176 215.375L720.351 224.318ZM726.126 231.715C727.71 234.45 728.718 237.393 729.153 240.587L740.927 238.982C740.285 234.273 738.778 229.851 736.41 225.761L726.126 231.715ZM729.099 239.784C729.099 240.395 728.95 239.762 729.694 239.018C730.438 238.274 731.071 238.423 730.46 238.423V250.306C732.903 250.306 735.826 249.691 738.096 247.421C740.367 245.15 740.982 242.227 740.982 239.784H729.099ZM730.46 238.423H721.838V250.306H730.46V238.423ZM721.838 238.423C721.372 238.423 721.82 238.316 722.45 238.835C722.752 239.084 722.95 239.364 723.061 239.586C723.162 239.788 723.157 239.874 723.14 239.752L711.376 241.433C711.704 243.727 712.691 246.193 714.896 248.008C717.052 249.784 719.611 250.306 721.838 250.306V238.423ZM723.072 239.369C722.073 234.624 719.633 230.627 715.851 227.601L708.428 236.88C710.034 238.165 711.006 239.736 711.444 241.817L723.072 239.369ZM716.03 227.75C712.247 224.471 707.719 222.796 702.709 222.796V234.679C704.884 234.679 706.643 235.339 708.248 236.73L716.03 227.75ZM702.709 222.796H659.063V234.679H702.709V222.796ZM659.063 222.796C653.266 222.796 648.206 225.02 644.229 229.246L652.882 237.39C654.652 235.509 656.597 234.679 659.063 234.679V222.796ZM644.354 229.117C640.345 233.125 638.303 238.148 638.303 243.826H650.186C650.186 241.241 651.017 239.259 652.756 237.519L644.354 229.117ZM638.303 243.826C638.303 249.495 640.335 254.538 644.229 258.675L652.882 250.531C651.028 248.561 650.186 246.418 650.186 243.826H638.303ZM644.229 258.675C648.206 262.901 653.266 265.124 659.063 265.124V253.241C656.597 253.241 654.652 252.411 652.882 250.531L644.229 258.675ZM659.063 265.124H703.518V253.241H659.063V265.124ZM703.518 265.124C707.403 265.124 710.994 265.867 714.35 267.326L719.088 256.428C714.182 254.295 708.972 253.241 703.518 253.241V265.124ZM714.554 267.41C717.944 268.736 720.837 270.626 723.295 273.083L731.698 264.681C728.049 261.032 723.758 258.251 718.884 256.344L714.554 267.41ZM723.424 273.209C725.848 275.49 727.823 278.311 729.322 281.759L740.22 277.021C738.126 272.206 735.251 268.022 731.568 264.555L723.424 273.209ZM729.362 281.848C730.781 284.97 731.524 288.435 731.524 292.322H743.407C743.407 286.869 742.353 281.712 740.18 276.931L729.362 281.848ZM731.524 292.322C731.524 296.207 730.781 299.799 729.322 303.155L740.22 307.893C742.353 302.987 743.407 297.777 743.407 292.322H731.524ZM729.362 303.065C727.859 306.372 725.842 309.283 723.295 311.83L731.698 320.233C735.258 316.673 738.09 312.579 740.18 307.982L729.362 303.065ZM723.295 311.83C720.791 314.334 717.828 316.345 714.35 317.857L719.088 328.755C723.873 326.674 728.094 323.836 731.698 320.233L723.295 311.83ZM714.35 317.857C710.994 319.316 707.403 320.059 703.518 320.059V331.941C708.972 331.941 714.182 330.888 719.088 328.755L714.35 317.857ZM703.518 320.059H657.177V331.941H703.518V320.059ZM657.177 320.059C653.541 320.059 650.098 319.455 646.814 318.261L642.753 329.428C647.372 331.108 652.191 331.941 657.177 331.941V320.059ZM647.124 318.384C643.927 317.014 641.052 315.197 638.476 312.923L630.614 321.834C634.145 324.949 638.095 327.442 642.443 329.306L647.124 318.384ZM638.609 313.044C636.209 310.794 634.164 308.153 632.477 305.085L622.065 310.812C624.329 314.929 627.133 318.574 630.481 321.713L638.609 313.044ZM632.477 305.085C630.904 302.226 629.976 299.166 629.687 295.849L617.849 296.878C618.279 301.823 619.686 306.486 622.065 310.812L632.477 305.085ZM805.425 216.344L810.695 219.088L810.798 218.89L810.886 218.685L805.425 216.344ZM808.119 213.111L804.97 208.073L804.815 208.17L804.666 208.277L808.119 213.111ZM825.632 213.111L822.179 217.946L822.328 218.053L822.483 218.15L825.632 213.111ZM828.865 216.344L834.113 213.559L834.07 213.477L834.024 213.397L828.865 216.344ZM884.636 321.42L890.272 319.541L890.116 319.071L889.884 318.634L884.636 321.42ZM865.237 322.767L859.997 325.566L860.049 325.664L860.105 325.761L865.237 322.767ZM852.574 299.058L857.815 296.259L856.137 293.116H852.574V299.058ZM797.881 294.477L792.602 291.752L792.39 292.162L792.245 292.599L797.881 294.477ZM802.192 286.125L797.06 283.131L796.983 283.264L796.912 283.4L802.192 286.125ZM843.953 282.892V288.834H853.676L849.24 280.181L843.953 282.892ZM816.741 229.816L822.028 227.105L816.728 216.767L811.448 227.116L816.741 229.816ZM769.322 322.767L764.03 320.067L763.907 320.309L763.806 320.56L769.322 322.767ZM767.167 325.192L770.224 330.287L770.345 330.214L770.463 330.135L767.167 325.192ZM750.732 321.42L745.462 318.677L745.244 319.094L745.096 319.541L750.732 321.42ZM810.886 218.685C810.943 218.552 811.083 218.296 811.573 217.946L804.666 208.277C802.641 209.723 800.985 211.622 799.964 214.004L810.886 218.685ZM811.268 218.15C812.08 217.643 812.341 217.706 812.161 217.706V205.823C809.466 205.823 807.033 206.784 804.97 208.073L811.268 218.15ZM812.161 217.706H821.86V205.823H812.161V217.706ZM821.86 217.706C821.767 217.706 821.72 217.687 821.748 217.696C821.785 217.71 821.929 217.768 822.179 217.946L829.085 208.277C827.055 206.826 824.615 205.823 821.86 205.823V217.706ZM822.483 218.15C823.23 218.616 823.552 219.021 823.706 219.292L834.024 213.397C832.742 211.153 830.908 209.402 828.781 208.073L822.483 218.15ZM823.617 219.13L879.388 324.205L889.884 318.634L834.113 213.559L823.617 219.13ZM878.999 323.299C879.074 323.523 879.134 323.711 879.181 323.868C879.228 324.026 879.258 324.137 879.276 324.208C879.295 324.284 879.291 324.28 879.28 324.215C879.275 324.18 879.264 324.111 879.254 324.015C879.245 323.922 879.233 323.77 879.233 323.575H891.116C891.116 322.628 890.915 321.769 890.804 321.326C890.664 320.763 890.478 320.157 890.272 319.541L878.999 323.299ZM879.233 323.575C879.233 323.296 879.339 322.046 880.527 320.978C881.595 320.016 882.608 320.059 882.481 320.059V331.941C884.149 331.941 886.51 331.58 888.476 329.81C890.561 327.933 891.116 325.47 891.116 323.575H879.233ZM882.481 320.059H870.087V331.941H882.481V320.059ZM870.087 320.059C870.14 320.059 870.246 320.067 870.38 320.107C870.514 320.147 870.621 320.203 870.688 320.248C870.815 320.333 870.668 320.284 870.369 319.773L860.105 325.761C862.103 329.185 865.425 331.941 870.087 331.941V320.059ZM870.478 319.968L857.815 296.259L847.334 301.857L859.997 325.566L870.478 319.968ZM852.574 293.116H800.037V304.999H852.574V293.116ZM800.037 293.116C799.909 293.116 800.923 293.074 801.991 294.035C803.178 295.104 803.284 296.354 803.284 296.633H791.401C791.401 298.528 791.956 300.991 794.041 302.868C796.008 304.637 798.368 304.999 800.037 304.999V293.116ZM803.284 296.633C803.284 296.828 803.272 296.979 803.263 297.072C803.253 297.169 803.243 297.238 803.237 297.273C803.226 297.338 803.222 297.342 803.241 297.266C803.259 297.195 803.289 297.084 803.337 296.926C803.383 296.769 803.443 296.58 803.518 296.356L792.245 292.599C792.039 293.214 791.854 293.821 791.713 294.383C791.602 294.827 791.401 295.686 791.401 296.633H803.284ZM803.161 297.202L807.472 288.85L796.912 283.4L792.602 291.752L803.161 297.202ZM807.324 289.119C807.622 288.608 807.77 288.559 807.643 288.644C807.576 288.689 807.469 288.745 807.335 288.785C807.201 288.825 807.095 288.834 807.042 288.834V276.951C802.38 276.951 799.058 279.707 797.06 283.131L807.324 289.119ZM807.042 288.834H843.953V276.951H807.042V288.834ZM849.24 280.181L822.028 227.105L811.454 232.526L838.666 285.603L849.24 280.181ZM811.448 227.116L764.03 320.067L774.615 325.467L822.034 232.516L811.448 227.116ZM763.806 320.56C763.91 320.301 764.03 320.149 764.073 320.099C764.11 320.058 764.068 320.117 763.871 320.248L770.463 330.135C772.208 328.972 773.905 327.309 774.839 324.974L763.806 320.56ZM764.11 320.097C764.036 320.142 764.037 320.13 764.113 320.107C764.193 320.083 764.318 320.059 764.473 320.059V331.941C766.616 331.941 768.558 331.286 770.224 330.287L764.11 320.097ZM764.473 320.059H752.888V331.941H764.473V320.059ZM752.888 320.059C752.76 320.059 753.773 320.016 754.841 320.978C756.029 322.046 756.135 323.296 756.135 323.575H744.252C744.252 325.47 744.807 327.933 746.892 329.81C748.858 331.58 751.219 331.941 752.888 331.941V320.059ZM756.135 323.575C756.135 323.77 756.123 323.922 756.114 324.015C756.104 324.111 756.093 324.18 756.088 324.215C756.077 324.28 756.073 324.284 756.092 324.208C756.11 324.137 756.14 324.026 756.187 323.868C756.234 323.711 756.294 323.523 756.369 323.299L745.096 319.541C744.89 320.157 744.705 320.763 744.564 321.326C744.453 321.769 744.252 322.628 744.252 323.575H756.135ZM756.002 324.163L810.695 219.088L800.155 213.601L745.462 318.677L756.002 324.163ZM942.126 216.344L947.397 219.088L947.5 218.89L947.587 218.685L942.126 216.344ZM944.821 213.111L941.672 208.073L941.516 208.17L941.367 208.277L944.821 213.111ZM962.333 213.111L958.88 217.946L959.029 218.053L959.184 218.15L962.333 213.111ZM965.566 216.344L970.814 213.559L970.771 213.477L970.725 213.397L965.566 216.344ZM1021.34 321.42L1026.97 319.541L1026.82 319.071L1026.59 318.634L1021.34 321.42ZM1001.94 322.767L996.698 325.566L996.75 325.664L996.806 325.761L1001.94 322.767ZM989.276 299.058L994.516 296.259L992.838 293.116H989.276V299.058ZM934.582 294.477L929.303 291.752L929.092 292.162L928.946 292.599L934.582 294.477ZM938.893 286.125L933.761 283.131L933.684 283.264L933.614 283.4L938.893 286.125ZM980.654 282.892V288.834H990.377L985.941 280.181L980.654 282.892ZM953.442 229.816L958.729 227.105L953.429 216.767L948.15 227.116L953.442 229.816ZM906.024 322.767L900.731 320.067L900.608 320.309L900.507 320.56L906.024 322.767ZM903.868 325.192L906.925 330.287L907.046 330.214L907.164 330.135L903.868 325.192ZM887.433 321.42L882.163 318.677L881.946 319.094L881.797 319.541L887.433 321.42ZM947.587 218.685C947.644 218.552 947.784 218.296 948.274 217.946L941.367 208.277C939.342 209.723 937.686 211.622 936.665 214.004L947.587 218.685ZM947.97 218.15C948.781 217.643 949.042 217.706 948.862 217.706V205.823C946.167 205.823 943.734 206.784 941.672 208.073L947.97 218.15ZM948.862 217.706H958.561V205.823H948.862V217.706ZM958.561 217.706C958.468 217.706 958.422 217.687 958.449 217.696C958.486 217.71 958.63 217.768 958.88 217.946L965.787 208.277C963.756 206.826 961.316 205.823 958.561 205.823V217.706ZM959.184 218.15C959.931 218.616 960.253 219.021 960.408 219.292L970.725 213.397C969.443 211.153 967.609 209.402 965.482 208.073L959.184 218.15ZM960.318 219.13L1016.09 324.205L1026.59 318.634L970.814 213.559L960.318 219.13ZM1015.7 323.299C1015.78 323.523 1015.83 323.711 1015.88 323.868C1015.93 324.026 1015.96 324.137 1015.98 324.208C1016 324.284 1015.99 324.28 1015.98 324.215C1015.98 324.18 1015.97 324.111 1015.96 324.015C1015.95 323.922 1015.93 323.77 1015.93 323.575H1027.82C1027.82 322.628 1027.62 321.769 1027.51 321.326C1027.36 320.763 1027.18 320.157 1026.97 319.541L1015.7 323.299ZM1015.93 323.575C1015.93 323.296 1016.04 322.046 1017.23 320.978C1018.3 320.016 1019.31 320.059 1019.18 320.059V331.941C1020.85 331.941 1023.21 331.58 1025.18 329.81C1027.26 327.933 1027.82 325.47 1027.82 323.575H1015.93ZM1019.18 320.059H1006.79V331.941H1019.18V320.059ZM1006.79 320.059C1006.84 320.059 1006.95 320.067 1007.08 320.107C1007.22 320.147 1007.32 320.203 1007.39 320.248C1007.52 320.333 1007.37 320.284 1007.07 319.773L996.806 325.761C998.804 329.185 1002.13 331.941 1006.79 331.941V320.059ZM1007.18 319.968L994.516 296.259L984.035 301.857L996.698 325.566L1007.18 319.968ZM989.276 293.116H936.738V304.999H989.276V293.116ZM936.738 293.116C936.61 293.116 937.624 293.074 938.692 294.035C939.879 295.104 939.985 296.354 939.985 296.633H928.102C928.102 298.528 928.657 300.991 930.743 302.868C932.709 304.637 935.069 304.999 936.738 304.999V293.116ZM939.985 296.633C939.985 296.828 939.973 296.979 939.964 297.072C939.954 297.169 939.944 297.238 939.938 297.273C939.927 297.338 939.923 297.342 939.942 297.266C939.96 297.195 939.99 297.084 940.038 296.926C940.085 296.769 940.144 296.58 940.219 296.356L928.946 292.599C928.741 293.214 928.555 293.821 928.414 294.383C928.303 294.827 928.102 295.686 928.102 296.633H939.985ZM939.862 297.202L944.173 288.85L933.614 283.4L929.303 291.752L939.862 297.202ZM944.025 289.119C944.324 288.608 944.471 288.559 944.344 288.644C944.277 288.689 944.17 288.745 944.036 288.785C943.902 288.825 943.796 288.834 943.743 288.834V276.951C939.081 276.951 935.759 279.707 933.761 283.131L944.025 289.119ZM943.743 288.834H980.654V276.951H943.743V288.834ZM985.941 280.181L958.729 227.105L948.155 232.526L975.367 285.603L985.941 280.181ZM948.15 227.116L900.731 320.067L911.316 325.467L958.735 232.516L948.15 227.116ZM900.507 320.56C900.611 320.301 900.731 320.149 900.775 320.099C900.811 320.058 900.769 320.117 900.572 320.248L907.164 330.135C908.909 328.972 910.606 327.309 911.54 324.974L900.507 320.56ZM900.811 320.097C900.737 320.142 900.738 320.13 900.814 320.107C900.894 320.083 901.02 320.059 901.174 320.059V331.941C903.317 331.941 905.259 331.286 906.925 330.287L900.811 320.097ZM901.174 320.059H889.589V331.941H901.174V320.059ZM889.589 320.059C889.461 320.059 890.475 320.016 891.543 320.978C892.73 322.046 892.836 323.296 892.836 323.575H880.953C880.953 325.47 881.508 327.933 883.593 329.81C885.56 331.58 887.92 331.941 889.589 331.941V320.059ZM892.836 323.575C892.836 323.77 892.824 323.922 892.815 324.015C892.805 324.111 892.795 324.18 892.789 324.215C892.778 324.28 892.774 324.284 892.793 324.208C892.811 324.137 892.841 324.026 892.888 323.868C892.935 323.711 892.995 323.523 893.07 323.299L881.797 319.541C881.591 320.157 881.406 320.763 881.265 321.326C881.154 321.769 880.953 322.628 880.953 323.575H892.836ZM892.704 324.163L947.397 219.088L936.856 213.601L882.163 318.677L892.704 324.163ZM1035.45 296.363H1029.51V296.621L1029.53 296.878L1035.45 296.363ZM1036.8 293.13L1032.6 288.929L1032.6 288.929L1036.8 293.13ZM1053.23 295.555L1047.35 296.395L1047.39 296.666L1047.45 296.931L1053.23 295.555ZM1058.89 305.254L1054.83 309.589L1054.9 309.659L1054.98 309.726L1058.89 305.254ZM1126.78 304.177L1131.1 308.256L1131.16 308.198L1131.21 308.138L1126.78 304.177ZM1126.78 280.737L1122.47 284.816L1122.47 284.816L1126.78 280.737ZM1058.35 273.462L1056.01 278.923L1056.06 278.943L1056.1 278.961L1058.35 273.462ZM1048.11 266.727L1043.91 270.928L1043.98 270.992L1044.04 271.053L1048.11 266.727ZM1041.11 256.758L1035.61 259.008L1035.67 259.162L1035.74 259.312L1041.11 256.758ZM1041.11 231.702L1035.7 229.243L1035.67 229.302L1035.65 229.361L1041.11 231.702ZM1048.11 221.463L1052.31 225.665L1052.31 225.665L1048.11 221.463ZM1058.35 214.458L1060.69 219.92L1060.75 219.894L1060.81 219.867L1058.35 214.458ZM1126.25 213.92L1124.04 219.436L1124.09 219.454L1124.13 219.472L1126.25 213.92ZM1135.95 219.847L1131.89 224.19L1131.96 224.256L1132.03 224.318L1135.95 219.847ZM1142.95 228.738L1137.69 231.505L1137.75 231.611L1137.81 231.715L1142.95 228.738ZM1146.72 239.784H1152.66V239.381L1152.61 238.982L1146.72 239.784ZM1128.94 240.593L1134.82 239.752L1134.79 239.559L1134.75 239.369L1128.94 240.593ZM1123.82 232.24L1119.93 236.73L1120.02 236.807L1120.11 236.88L1123.82 232.24ZM1060.24 233.318L1064.44 237.519L1064.5 237.456L1064.56 237.39L1060.24 233.318ZM1060.24 254.603L1064.56 250.531L1064.56 250.531L1060.24 254.603ZM1128.4 261.877L1126.03 267.326L1126.13 267.37L1126.24 267.41L1128.4 261.877ZM1139.18 268.882L1134.98 273.083L1135.04 273.147L1135.11 273.209L1139.18 268.882ZM1146.45 279.39L1141 281.759L1141.02 281.804L1141.04 281.848L1146.45 279.39ZM1146.45 305.524L1151.86 307.982L1151.88 307.938L1151.9 307.893L1146.45 305.524ZM1139.18 316.031L1134.98 311.83L1134.98 311.83L1139.18 316.031ZM1128.4 323.306L1126.03 317.857L1128.4 323.306ZM1056.47 323.845L1054.12 329.306L1054.28 329.371L1054.43 329.428L1056.47 323.845ZM1046.23 317.378L1042.16 321.713L1042.23 321.774L1042.3 321.834L1046.23 317.378ZM1038.95 307.949L1033.75 310.812L1033.75 310.812L1038.95 307.949ZM1041.39 296.363C1041.39 296.458 1041.37 296.658 1041.27 296.897C1041.17 297.136 1041.05 297.28 1041 297.332L1032.6 288.929C1030.6 290.929 1029.51 293.512 1029.51 296.363H1041.39ZM1041 297.332C1040.95 297.383 1040.8 297.505 1040.56 297.604C1040.32 297.704 1040.13 297.725 1040.03 297.725V285.842C1037.18 285.842 1034.6 286.929 1032.6 288.929L1041 297.332ZM1040.03 297.725H1048.92V285.842H1040.03V297.725ZM1048.92 297.725C1049.2 297.725 1048.64 297.783 1047.97 297.198C1047.31 296.619 1047.3 296.075 1047.35 296.395L1059.11 294.715C1058.8 292.521 1057.9 290.091 1055.8 288.255C1053.69 286.412 1051.15 285.842 1048.92 285.842V297.725ZM1047.45 296.931C1048.62 301.855 1051.12 306.112 1054.83 309.589L1062.95 300.92C1060.92 299.009 1059.64 296.799 1059.01 294.179L1047.45 296.931ZM1054.98 309.726C1058.98 313.224 1063.79 314.968 1069.13 314.968V303.085C1066.56 303.085 1064.55 302.314 1062.8 300.783L1054.98 309.726ZM1069.13 314.968H1115.47V303.085H1069.13V314.968ZM1115.47 314.968C1121.58 314.968 1126.92 312.691 1131.1 308.256L1122.47 300.097C1120.55 302.129 1118.34 303.085 1115.47 303.085V314.968ZM1131.21 308.138C1135.22 303.66 1137.31 298.306 1137.31 292.322H1125.42C1125.42 295.319 1124.46 297.868 1122.36 300.215L1131.21 308.138ZM1137.31 292.322C1137.31 286.331 1135.21 281.005 1131.1 276.657L1122.47 284.816C1124.47 286.935 1125.42 289.332 1125.42 292.322H1137.31ZM1131.1 276.657C1126.92 272.223 1121.58 269.946 1115.47 269.946V281.829C1118.34 281.829 1120.55 282.785 1122.47 284.816L1131.1 276.657ZM1115.47 269.946H1071.01V281.829H1115.47V269.946ZM1071.01 269.946C1067.25 269.946 1063.8 269.273 1060.6 267.963L1056.1 278.961C1060.8 280.885 1065.79 281.829 1071.01 281.829V269.946ZM1060.69 268.001C1057.57 266.665 1054.74 264.808 1052.19 262.4L1044.04 271.053C1047.59 274.393 1051.59 277.027 1056.01 278.923L1060.69 268.001ZM1052.31 262.525C1049.93 260.144 1047.99 257.382 1046.47 254.204L1035.74 259.312C1037.82 263.678 1040.55 267.562 1043.91 270.928L1052.31 262.525ZM1046.61 254.508C1045.3 251.307 1044.62 247.855 1044.62 244.095H1032.74C1032.74 249.316 1033.69 254.305 1035.61 259.008L1046.61 254.508ZM1044.62 244.095C1044.62 240.333 1045.3 237.007 1046.57 234.042L1035.65 229.361C1033.68 233.94 1032.74 238.876 1032.74 244.095H1044.62ZM1046.52 234.16C1048.04 230.813 1049.98 228.001 1052.31 225.665L1043.91 217.262C1040.5 220.673 1037.77 224.687 1035.7 229.243L1046.52 234.16ZM1052.31 225.665C1054.86 223.117 1057.65 221.223 1060.69 219.92L1056.01 208.997C1051.51 210.927 1047.47 213.703 1043.91 217.262L1052.31 225.665ZM1060.81 219.867C1063.96 218.434 1067.34 217.706 1071.01 217.706V205.823C1065.71 205.823 1060.64 206.89 1055.89 209.049L1060.81 219.867ZM1071.01 217.706H1114.93V205.823H1071.01V217.706ZM1114.93 217.706C1118.14 217.706 1121.16 218.286 1124.04 219.436L1128.45 208.403C1124.14 206.679 1119.62 205.823 1114.93 205.823V217.706ZM1124.13 219.472C1127.25 220.661 1129.81 222.248 1131.89 224.19L1140 215.503C1136.69 212.416 1132.78 210.052 1128.36 208.367L1124.13 219.472ZM1132.03 224.318C1134.35 226.347 1136.23 228.732 1137.69 231.505L1148.21 225.971C1146.08 221.919 1143.29 218.376 1139.86 215.375L1132.03 224.318ZM1137.81 231.715C1139.39 234.45 1140.4 237.393 1140.84 240.587L1152.61 238.982C1151.97 234.273 1150.46 229.851 1148.09 225.761L1137.81 231.715ZM1140.78 239.784C1140.78 240.395 1140.63 239.762 1141.38 239.018C1142.12 238.274 1142.75 238.423 1142.14 238.423V250.306C1144.58 250.306 1147.51 249.691 1149.78 247.421C1152.05 245.15 1152.66 242.227 1152.66 239.784H1140.78ZM1142.14 238.423H1133.52V250.306H1142.14V238.423ZM1133.52 238.423C1133.05 238.423 1133.5 238.316 1134.13 238.835C1134.43 239.084 1134.63 239.364 1134.74 239.586C1134.84 239.788 1134.84 239.874 1134.82 239.752L1123.06 241.433C1123.39 243.727 1124.37 246.193 1126.58 248.008C1128.73 249.784 1131.29 250.306 1133.52 250.306V238.423ZM1134.75 239.369C1133.76 234.624 1131.32 230.627 1127.53 227.601L1120.11 236.88C1121.72 238.165 1122.69 239.736 1123.13 241.817L1134.75 239.369ZM1127.71 227.75C1123.93 224.471 1119.4 222.796 1114.39 222.796V234.679C1116.57 234.679 1118.33 235.339 1119.93 236.73L1127.71 227.75ZM1114.39 222.796H1070.74V234.679H1114.39V222.796ZM1070.74 222.796C1064.95 222.796 1059.89 225.02 1055.91 229.246L1064.56 237.39C1066.33 235.509 1068.28 234.679 1070.74 234.679V222.796ZM1056.04 229.117C1052.03 233.125 1049.98 238.148 1049.98 243.826H1061.87C1061.87 241.241 1062.7 239.259 1064.44 237.519L1056.04 229.117ZM1049.98 243.826C1049.98 249.495 1052.02 254.538 1055.91 258.675L1064.56 250.531C1062.71 248.561 1061.87 246.418 1061.87 243.826H1049.98ZM1055.91 258.675C1059.89 262.901 1064.95 265.124 1070.74 265.124V253.241C1068.28 253.241 1066.33 252.411 1064.56 250.531L1055.91 258.675ZM1070.74 265.124H1115.2V253.241H1070.74V265.124ZM1115.2 265.124C1119.09 265.124 1122.68 265.867 1126.03 267.326L1130.77 256.428C1125.86 254.295 1120.65 253.241 1115.2 253.241V265.124ZM1126.24 267.41C1129.63 268.736 1132.52 270.626 1134.98 273.083L1143.38 264.681C1139.73 261.032 1135.44 258.251 1130.57 256.344L1126.24 267.41ZM1135.11 273.209C1137.53 275.49 1139.51 278.311 1141 281.759L1151.9 277.021C1149.81 272.206 1146.93 268.022 1143.25 264.555L1135.11 273.209ZM1141.04 281.848C1142.46 284.97 1143.21 288.435 1143.21 292.322H1155.09C1155.09 286.869 1154.04 281.712 1151.86 276.931L1141.04 281.848ZM1143.21 292.322C1143.21 296.207 1142.46 299.799 1141 303.155L1151.9 307.893C1154.03 302.987 1155.09 297.777 1155.09 292.322H1143.21ZM1141.04 303.065C1139.54 306.372 1137.52 309.283 1134.98 311.83L1143.38 320.233C1146.94 316.673 1149.77 312.579 1151.86 307.982L1141.04 303.065ZM1134.98 311.83C1132.47 314.334 1129.51 316.345 1126.03 317.857L1130.77 328.755C1135.56 326.674 1139.78 323.836 1143.38 320.233L1134.98 311.83ZM1126.03 317.857C1122.68 319.316 1119.09 320.059 1115.2 320.059V331.941C1120.65 331.941 1125.86 330.888 1130.77 328.755L1126.03 317.857ZM1115.2 320.059H1068.86V331.941H1115.2V320.059ZM1068.86 320.059C1065.22 320.059 1061.78 319.455 1058.5 318.261L1054.43 329.428C1059.05 331.108 1063.87 331.941 1068.86 331.941V320.059ZM1058.81 318.384C1055.61 317.014 1052.73 315.197 1050.16 312.923L1042.3 321.834C1045.83 324.949 1049.78 327.442 1054.12 329.306L1058.81 318.384ZM1050.29 313.044C1047.89 310.794 1045.85 308.153 1044.16 305.085L1033.75 310.812C1036.01 314.929 1038.82 318.574 1042.16 321.713L1050.29 313.044ZM1044.16 305.085C1042.59 302.226 1041.66 299.166 1041.37 295.849L1029.53 296.878C1029.96 301.823 1031.37 306.486 1033.75 310.812L1044.16 305.085ZM1250.49 222.811L1245.18 220.153L1245.13 220.252L1245.08 220.352L1250.49 222.811ZM1254.53 217.153L1250.33 212.951L1250.33 212.951L1254.53 217.153ZM1259.92 213.381L1262.38 218.79L1262.48 218.744L1262.58 218.695L1259.92 213.381ZM1359.88 213.381L1357.03 218.597L1357.22 218.7L1357.42 218.79L1359.88 213.381ZM1369.04 222.811L1363.55 225.096L1363.67 225.383L1363.82 225.656L1369.04 222.811ZM1369.04 315.223L1363.73 312.566L1363.68 312.664L1363.63 312.764L1369.04 315.223ZM1365.27 320.612L1361.07 316.41L1361.07 316.41L1365.27 320.612ZM1359.88 324.653L1362.34 330.062L1362.53 329.972L1362.72 329.869L1359.88 324.653ZM1259.92 324.653L1257.08 329.869L1257.35 330.018L1257.64 330.137L1259.92 324.653ZM1254.53 320.612L1250.33 324.813L1250.33 324.813L1254.53 320.612ZM1250.49 315.223L1245.01 317.508L1245.13 317.795L1245.28 318.068L1250.49 315.223ZM1267.74 309.026H1261.79V314.968H1267.74V309.026ZM1352.07 309.026V314.968H1358.01V309.026H1352.07ZM1352.07 228.738H1358.01V222.796H1352.07V228.738ZM1267.74 228.738V222.796H1261.79V228.738H1267.74ZM1255.09 228.738C1255.09 227.691 1255.32 226.55 1255.9 225.269L1245.08 220.352C1243.87 223.023 1243.2 225.834 1243.2 228.738H1255.09ZM1255.81 225.468C1256.61 223.852 1257.59 222.495 1258.74 221.354L1250.33 212.951C1248.24 215.043 1246.53 217.458 1245.18 220.153L1255.81 225.468ZM1258.74 221.354C1259.88 220.214 1261.09 219.377 1262.38 218.79L1257.46 207.972C1254.81 209.18 1252.43 210.858 1250.33 212.951L1258.74 221.354ZM1262.58 218.695C1264.09 217.941 1265.25 217.706 1266.12 217.706V205.823C1263.04 205.823 1260.07 206.666 1257.27 208.067L1262.58 218.695ZM1266.12 217.706H1353.68V205.823H1266.12V217.706ZM1353.68 217.706C1354.8 217.706 1355.89 217.973 1357.03 218.597L1362.72 208.165C1359.92 206.633 1356.88 205.823 1353.68 205.823V217.706ZM1357.42 218.79C1358.71 219.377 1359.93 220.214 1361.07 221.354L1369.47 212.951C1367.38 210.858 1365 209.18 1362.34 207.972L1357.42 218.79ZM1361.07 221.354C1362.12 222.41 1362.95 223.641 1363.55 225.096L1374.52 220.525C1373.33 217.669 1371.65 215.129 1369.47 212.951L1361.07 221.354ZM1363.82 225.656C1364.49 226.882 1364.71 227.887 1364.71 228.738H1376.6C1376.6 225.637 1375.74 222.691 1374.26 219.965L1363.82 225.656ZM1364.71 228.738V309.026H1376.6V228.738H1364.71ZM1364.71 309.026C1364.71 309.899 1364.48 311.057 1363.73 312.566L1374.35 317.88C1375.75 315.078 1376.6 312.105 1376.6 309.026H1364.71ZM1363.63 312.764C1363.04 314.058 1362.21 315.27 1361.07 316.41L1369.47 324.813C1371.56 322.72 1373.24 320.34 1374.45 317.682L1363.63 312.764ZM1361.07 316.41C1359.84 317.632 1358.5 318.635 1357.03 319.437L1362.72 329.869C1365.21 328.515 1367.46 326.824 1369.47 324.813L1361.07 316.41ZM1357.42 319.244C1356.21 319.794 1354.98 320.059 1353.68 320.059V331.941C1356.69 331.941 1359.6 331.308 1362.34 330.062L1357.42 319.244ZM1353.68 320.059H1266.12V331.941H1353.68V320.059ZM1266.12 320.059C1265.06 320.059 1263.77 319.819 1262.21 319.168L1257.64 330.137C1260.39 331.283 1263.23 331.941 1266.12 331.941V320.059ZM1262.77 319.437C1261.3 318.635 1259.96 317.632 1258.74 316.41L1250.33 324.813C1252.34 326.824 1254.6 328.515 1257.08 329.869L1262.77 319.437ZM1258.74 316.41C1257.51 315.189 1256.51 313.848 1255.71 312.378L1245.28 318.068C1246.63 320.55 1248.32 322.801 1250.33 324.813L1258.74 316.41ZM1255.98 312.938C1255.33 311.377 1255.09 310.089 1255.09 309.026H1243.2C1243.2 311.916 1243.86 314.758 1245.01 317.508L1255.98 312.938ZM1255.09 309.026V228.738H1243.2V309.026H1255.09ZM1267.74 314.968H1352.07V303.085H1267.74V314.968ZM1358.01 309.026V228.738H1346.12V309.026H1358.01ZM1352.07 222.796H1267.74V234.679H1352.07V222.796ZM1261.79 228.738V309.026H1273.68V228.738H1261.79ZM1396.88 296.363H1390.94V296.621L1390.96 296.878L1396.88 296.363ZM1398.23 293.13L1394.02 288.929L1394.02 288.929L1398.23 293.13ZM1414.66 295.555L1408.78 296.395L1408.82 296.666L1408.88 296.931L1414.66 295.555ZM1420.32 305.254L1416.25 309.589L1416.33 309.659L1416.41 309.726L1420.32 305.254ZM1488.21 304.177L1492.53 308.256L1492.59 308.198L1492.64 308.138L1488.21 304.177ZM1488.21 280.737L1483.89 284.816L1483.89 284.816L1488.21 280.737ZM1419.78 273.462L1417.44 278.923L1417.48 278.943L1417.53 278.961L1419.78 273.462ZM1409.54 266.727L1405.34 270.928L1405.4 270.992L1405.47 271.053L1409.54 266.727ZM1402.54 256.758L1397.04 259.008L1397.1 259.162L1397.17 259.312L1402.54 256.758ZM1402.54 231.702L1397.13 229.243L1397.1 229.302L1397.08 229.361L1402.54 231.702ZM1409.54 221.463L1413.74 225.665L1413.74 225.665L1409.54 221.463ZM1419.78 214.458L1422.12 219.92L1422.18 219.894L1422.24 219.867L1419.78 214.458ZM1487.67 213.92L1485.47 219.436L1485.51 219.454L1485.56 219.472L1487.67 213.92ZM1497.37 219.847L1493.32 224.19L1493.39 224.256L1493.46 224.318L1497.37 219.847ZM1504.38 228.738L1499.12 231.505L1499.18 231.611L1499.24 231.715L1504.38 228.738ZM1508.15 239.784H1514.09V239.381L1514.04 238.982L1508.15 239.784ZM1490.37 240.593L1496.25 239.752L1496.22 239.559L1496.18 239.369L1490.37 240.593ZM1485.25 232.24L1481.36 236.73L1481.45 236.807L1481.54 236.88L1485.25 232.24ZM1421.67 233.318L1425.87 237.519L1425.93 237.456L1425.99 237.39L1421.67 233.318ZM1421.67 254.603L1425.99 250.531L1425.99 250.531L1421.67 254.603ZM1489.83 261.877L1487.46 267.326L1487.56 267.37L1487.66 267.41L1489.83 261.877ZM1500.61 268.882L1496.41 273.083L1496.47 273.147L1496.53 273.209L1500.61 268.882ZM1507.88 279.39L1502.43 281.759L1502.45 281.804L1502.47 281.848L1507.88 279.39ZM1507.88 305.524L1513.29 307.982L1513.31 307.938L1513.33 307.893L1507.88 305.524ZM1500.61 316.031L1496.41 311.83L1496.41 311.83L1500.61 316.031ZM1489.83 323.306L1487.46 317.857L1489.83 323.306ZM1417.89 323.845L1415.55 329.306L1415.71 329.371L1415.86 329.428L1417.89 323.845ZM1407.66 317.378L1403.59 321.713L1403.66 321.774L1403.72 321.834L1407.66 317.378ZM1400.38 307.949L1395.17 310.812L1395.17 310.812L1400.38 307.949ZM1402.82 296.363C1402.82 296.458 1402.8 296.658 1402.7 296.897C1402.6 297.136 1402.48 297.28 1402.43 297.332L1394.02 288.929C1392.02 290.929 1390.94 293.512 1390.94 296.363H1402.82ZM1402.43 297.332C1402.38 297.383 1402.23 297.505 1401.99 297.604C1401.75 297.704 1401.55 297.725 1401.46 297.725V285.842C1398.61 285.842 1396.02 286.929 1394.02 288.929L1402.43 297.332ZM1401.46 297.725H1410.35V285.842H1401.46V297.725ZM1410.35 297.725C1410.63 297.725 1410.07 297.783 1409.4 297.198C1408.74 296.619 1408.73 296.075 1408.78 296.395L1420.54 294.715C1420.23 292.521 1419.32 290.091 1417.23 288.255C1415.12 286.412 1412.58 285.842 1410.35 285.842V297.725ZM1408.88 296.931C1410.05 301.855 1412.55 306.112 1416.25 309.589L1424.38 300.92C1422.34 299.009 1421.06 296.799 1420.44 294.179L1408.88 296.931ZM1416.41 309.726C1420.4 313.224 1425.22 314.968 1430.56 314.968V303.085C1427.99 303.085 1425.98 302.314 1424.23 300.783L1416.41 309.726ZM1430.56 314.968H1476.9V303.085H1430.56V314.968ZM1476.9 314.968C1483 314.968 1488.34 312.691 1492.53 308.256L1483.89 300.097C1481.97 302.129 1479.77 303.085 1476.9 303.085V314.968ZM1492.64 308.138C1496.65 303.66 1498.73 298.306 1498.73 292.322H1486.85C1486.85 295.319 1485.89 297.868 1483.79 300.215L1492.64 308.138ZM1498.73 292.322C1498.73 286.331 1496.64 281.005 1492.53 276.657L1483.89 284.816C1485.89 286.935 1486.85 289.332 1486.85 292.322H1498.73ZM1492.53 276.657C1488.34 272.223 1483 269.946 1476.9 269.946V281.829C1479.77 281.829 1481.97 282.785 1483.89 284.816L1492.53 276.657ZM1476.9 269.946H1432.44V281.829H1476.9V269.946ZM1432.44 269.946C1428.68 269.946 1425.23 269.273 1422.03 267.963L1417.53 278.961C1422.23 280.885 1427.22 281.829 1432.44 281.829V269.946ZM1422.12 268.001C1419 266.665 1416.17 264.808 1413.61 262.4L1405.47 271.053C1409.02 274.393 1413.01 277.027 1417.44 278.923L1422.12 268.001ZM1413.74 262.525C1411.36 260.144 1409.41 257.382 1407.9 254.204L1397.17 259.312C1399.25 263.678 1401.97 267.562 1405.34 270.928L1413.74 262.525ZM1408.04 254.508C1406.73 251.307 1406.05 247.855 1406.05 244.095H1394.17C1394.17 249.316 1395.11 254.305 1397.04 259.008L1408.04 254.508ZM1406.05 244.095C1406.05 240.333 1406.73 237.007 1408 234.042L1397.08 229.361C1395.11 233.94 1394.17 238.876 1394.17 244.095H1406.05ZM1407.95 234.16C1409.47 230.813 1411.41 228.001 1413.74 225.665L1405.34 217.262C1401.93 220.673 1399.2 224.687 1397.13 229.243L1407.95 234.16ZM1413.74 225.665C1416.29 223.117 1419.08 221.223 1422.12 219.92L1417.44 208.997C1412.94 210.927 1408.9 213.703 1405.34 217.262L1413.74 225.665ZM1422.24 219.867C1425.39 218.434 1428.77 217.706 1432.44 217.706V205.823C1427.13 205.823 1422.07 206.89 1417.32 209.049L1422.24 219.867ZM1432.44 217.706H1476.36V205.823H1432.44V217.706ZM1476.36 217.706C1479.57 217.706 1482.59 218.286 1485.47 219.436L1489.88 208.403C1485.57 206.679 1481.05 205.823 1476.36 205.823V217.706ZM1485.56 219.472C1488.68 220.661 1491.24 222.248 1493.32 224.19L1501.43 215.503C1498.12 212.416 1494.21 210.052 1489.79 208.367L1485.56 219.472ZM1493.46 224.318C1495.78 226.347 1497.66 228.732 1499.12 231.505L1509.64 225.971C1507.5 221.919 1504.71 218.376 1501.29 215.375L1493.46 224.318ZM1499.24 231.715C1500.82 234.45 1501.83 237.393 1502.26 240.587L1514.04 238.982C1513.4 234.273 1511.89 229.851 1509.52 225.761L1499.24 231.715ZM1502.21 239.784C1502.21 240.395 1502.06 239.762 1502.8 239.018C1503.55 238.274 1504.18 238.423 1503.57 238.423V250.306C1506.01 250.306 1508.94 249.691 1511.21 247.421C1513.48 245.15 1514.09 242.227 1514.09 239.784H1502.21ZM1503.57 238.423H1494.95V250.306H1503.57V238.423ZM1494.95 238.423C1494.48 238.423 1494.93 238.316 1495.56 238.835C1495.86 239.084 1496.06 239.364 1496.17 239.586C1496.27 239.788 1496.27 239.874 1496.25 239.752L1484.49 241.433C1484.81 243.727 1485.8 246.193 1488.01 248.008C1490.16 249.784 1492.72 250.306 1494.95 250.306V238.423ZM1496.18 239.369C1495.18 234.624 1492.74 230.627 1488.96 227.601L1481.54 236.88C1483.14 238.165 1484.12 239.736 1484.55 241.817L1496.18 239.369ZM1489.14 227.75C1485.36 224.471 1480.83 222.796 1475.82 222.796V234.679C1477.99 234.679 1479.75 235.339 1481.36 236.73L1489.14 227.75ZM1475.82 222.796H1432.17V234.679H1475.82V222.796ZM1432.17 222.796C1426.38 222.796 1421.32 225.02 1417.34 229.246L1425.99 237.39C1427.76 235.509 1429.71 234.679 1432.17 234.679V222.796ZM1417.46 229.117C1413.46 233.125 1411.41 238.148 1411.41 243.826H1423.3C1423.3 241.241 1424.13 239.259 1425.87 237.519L1417.46 229.117ZM1411.41 243.826C1411.41 249.495 1413.44 254.538 1417.34 258.675L1425.99 250.531C1424.14 248.561 1423.3 246.418 1423.3 243.826H1411.41ZM1417.34 258.675C1421.32 262.901 1426.38 265.124 1432.17 265.124V253.241C1429.71 253.241 1427.76 252.411 1425.99 250.531L1417.34 258.675ZM1432.17 265.124H1476.63V253.241H1432.17V265.124ZM1476.63 265.124C1480.51 265.124 1484.1 265.867 1487.46 267.326L1492.2 256.428C1487.29 254.295 1482.08 253.241 1476.63 253.241V265.124ZM1487.66 267.41C1491.05 268.736 1493.95 270.626 1496.41 273.083L1504.81 264.681C1501.16 261.032 1496.87 258.251 1491.99 256.344L1487.66 267.41ZM1496.53 273.209C1498.96 275.49 1500.93 278.311 1502.43 281.759L1513.33 277.021C1511.24 272.206 1508.36 268.022 1504.68 264.555L1496.53 273.209ZM1502.47 281.848C1503.89 284.97 1504.63 288.435 1504.63 292.322H1516.52C1516.52 286.869 1515.46 281.712 1513.29 276.931L1502.47 281.848ZM1504.63 292.322C1504.63 296.207 1503.89 299.799 1502.43 303.155L1513.33 307.893C1515.46 302.987 1516.52 297.777 1516.52 292.322H1504.63ZM1502.47 303.065C1500.97 306.372 1498.95 309.283 1496.41 311.83L1504.81 320.233C1508.37 316.673 1511.2 312.579 1513.29 307.982L1502.47 303.065ZM1496.41 311.83C1493.9 314.334 1490.94 316.345 1487.46 317.857L1492.2 328.755C1496.98 326.674 1501.2 323.836 1504.81 320.233L1496.41 311.83ZM1487.46 317.857C1484.1 319.316 1480.51 320.059 1476.63 320.059V331.941C1482.08 331.941 1487.29 330.888 1492.2 328.755L1487.46 317.857ZM1476.63 320.059H1430.29V331.941H1476.63V320.059ZM1430.29 320.059C1426.65 320.059 1423.21 319.455 1419.92 318.261L1415.86 329.428C1420.48 331.108 1425.3 331.941 1430.29 331.941V320.059ZM1420.23 318.384C1417.04 317.014 1414.16 315.197 1411.59 312.923L1403.72 321.834C1407.25 324.949 1411.21 327.442 1415.55 329.306L1420.23 318.384ZM1411.72 313.044C1409.32 310.794 1407.27 308.153 1405.59 305.085L1395.17 310.812C1397.44 314.929 1400.24 318.574 1403.59 321.713L1411.72 313.044ZM1405.59 305.085C1404.01 302.226 1403.09 299.166 1402.8 295.849L1390.96 296.878C1391.39 301.823 1392.8 306.486 1395.17 310.812L1405.59 305.085Z" fill="white" mask="url(#path-4-outside-1_366_3150)"/>
</svg>
