<svg width="182" height="81" viewBox="0 0 182 81" fill="none" xmlns="http://www.w3.org/2000/svg">
<g clip-path="url(#clip0_10_38)">
<g clip-path="url(#clip1_10_38)">
<path d="M22.0748 19.4399L32.1517 27.3129L5.03691 62.0182C-0.528423 57.6701 -1.51517 49.6337 2.83294 44.0684L22.0748 19.4399Z" fill="#FFB259"/>
<rect x="35.1242" y="29.2271" width="9.67731" height="27.0955" transform="rotate(38 35.1242 29.2271)" fill="#FFB259"/>
</g>
<path d="M65.496 29.1C67.608 29.1 69.368 29.804 70.776 31.212C72.2053 32.62 72.92 34.3693 72.92 36.46C72.92 38.5293 72.2053 40.2787 70.776 41.708C69.368 43.116 67.608 43.82 65.496 43.82H60.92V51.5H57.24V29.1H65.496ZM65.496 40.364C66.584 40.364 67.48 40.0013 68.184 39.276C68.888 38.5293 69.24 37.5907 69.24 36.46C69.24 35.3293 68.888 34.4013 68.184 33.676C67.48 32.9293 66.584 32.556 65.496 32.556H60.92V40.364H65.496ZM79.155 32.46C78.7283 32.8867 78.2163 33.1 77.619 33.1C77.0217 33.1 76.499 32.8867 76.051 32.46C75.6243 32.012 75.411 31.4893 75.411 30.892C75.411 30.2947 75.6243 29.7827 76.051 29.356C76.4777 28.908 77.0003 28.684 77.619 28.684C78.2377 28.684 78.7603 28.908 79.187 29.356C79.6137 29.7827 79.827 30.2947 79.827 30.892C79.827 31.4893 79.603 32.012 79.155 32.46ZM75.891 51.5V35.5H79.347V51.5H75.891ZM91.7758 35.084C93.6104 35.084 95.0931 35.6707 96.2238 36.844C97.3544 38.0173 97.9198 39.628 97.9198 41.676V51.5H94.4638V42.028C94.4638 40.8333 94.1438 39.916 93.5038 39.276C92.8638 38.636 91.9891 38.316 90.8798 38.316C89.6638 38.316 88.6824 38.7 87.9358 39.468C87.1891 40.2147 86.8158 41.3667 86.8158 42.924V51.5H83.3598V35.5H86.8158V37.548C87.8611 35.9053 89.5144 35.084 91.7758 35.084ZM110.057 35.084C111.892 35.084 113.374 35.6707 114.505 36.844C115.636 38.0173 116.201 39.628 116.201 41.676V51.5H112.745V42.028C112.745 40.8333 112.425 39.916 111.785 39.276C111.145 38.636 110.27 38.316 109.161 38.316C107.945 38.316 106.964 38.7 106.217 39.468C105.47 40.2147 105.097 41.3667 105.097 42.924V51.5H101.641V35.5H105.097V37.548C106.142 35.9053 107.796 35.084 110.057 35.084ZM132.594 35.5H136.05V51.5H132.594V49.196C131.293 51.0093 129.426 51.916 126.994 51.916C124.797 51.916 122.92 51.1053 121.362 49.484C119.805 47.8413 119.026 45.8467 119.026 43.5C119.026 41.132 119.805 39.1373 121.362 37.516C122.92 35.8947 124.797 35.084 126.994 35.084C129.426 35.084 131.293 35.98 132.594 37.772V35.5ZM123.922 47.18C124.882 48.14 126.088 48.62 127.538 48.62C128.989 48.62 130.194 48.14 131.154 47.18C132.114 46.1987 132.594 44.972 132.594 43.5C132.594 42.028 132.114 40.812 131.154 39.852C130.194 38.8707 128.989 38.38 127.538 38.38C126.088 38.38 124.882 38.8707 123.922 39.852C122.962 40.812 122.482 42.028 122.482 43.5C122.482 44.972 122.962 46.1987 123.922 47.18ZM147.631 51.916C145.22 51.916 143.204 51.1053 141.583 49.484C139.983 47.8627 139.183 45.868 139.183 43.5C139.183 41.1107 139.983 39.116 141.583 37.516C143.204 35.8947 145.22 35.084 147.631 35.084C149.188 35.084 150.607 35.4573 151.887 36.204C153.167 36.9507 154.127 37.9533 154.767 39.212L151.791 40.94C151.428 40.172 150.873 39.5747 150.127 39.148C149.401 38.7 148.559 38.476 147.599 38.476C146.191 38.476 145.007 38.956 144.047 39.916C143.108 40.876 142.639 42.0707 142.639 43.5C142.639 44.9293 143.108 46.124 144.047 47.084C145.007 48.044 146.191 48.524 147.599 48.524C148.537 48.524 149.38 48.3 150.127 47.852C150.895 47.404 151.471 46.8067 151.855 46.06L154.831 47.756C154.148 49.036 153.167 50.0493 151.887 50.796C150.607 51.5427 149.188 51.916 147.631 51.916ZM157.329 51.5V28.14H160.785V51.5H157.329ZM167.517 44.972C167.773 46.188 168.36 47.1267 169.277 47.788C170.195 48.428 171.315 48.748 172.637 48.748C174.472 48.748 175.848 48.0867 176.765 46.764L179.613 48.428C178.035 50.7533 175.699 51.916 172.605 51.916C170.003 51.916 167.901 51.1267 166.301 49.548C164.701 47.948 163.901 45.932 163.901 43.5C163.901 41.1107 164.691 39.116 166.269 37.516C167.848 35.8947 169.875 35.084 172.349 35.084C174.696 35.084 176.616 35.9053 178.109 37.548C179.624 39.1907 180.381 41.1853 180.381 43.532C180.381 43.8947 180.339 44.3747 180.253 44.972H167.517ZM167.485 42.156H176.893C176.659 40.8547 176.115 39.8733 175.261 39.212C174.429 38.5507 173.448 38.22 172.317 38.22C171.037 38.22 169.971 38.572 169.117 39.276C168.264 39.98 167.72 40.94 167.485 42.156Z" fill="white"/>
</g>
<defs>
<clipPath id="clip0_10_38">
<rect width="182" height="81" fill="white"/>
</clipPath>
<clipPath id="clip1_10_38">
<rect width="43" height="81" rx="21.5" fill="white"/>
</clipPath>
</defs>
</svg>
