<svg width="199" height="72" viewBox="0 0 199 72" fill="none" xmlns="http://www.w3.org/2000/svg">
<g clip-path="url(#clip0_151_485)">
<path d="M37.0033 17.0996L46.0725 24.1853L21.6692 55.4201V55.4201C16.6604 51.5068 15.7723 44.274 19.6856 39.2652L37.0033 17.0996Z" fill="#FFB259"/>
<rect x="48.7477" y="25.9092" width="8.70958" height="24.3859" transform="rotate(38 48.7477 25.9092)" fill="#FFB259"/>
<path d="M82.496 24.6C84.608 24.6 86.368 25.304 87.776 26.712C89.2053 28.12 89.92 29.8693 89.92 31.96C89.92 34.0293 89.2053 35.7787 87.776 37.208C86.368 38.616 84.608 39.32 82.496 39.32H77.92V47H74.24V24.6H82.496ZM82.496 35.864C83.584 35.864 84.48 35.5013 85.184 34.776C85.888 34.0293 86.24 33.0907 86.24 31.96C86.24 30.8293 85.888 29.9013 85.184 29.176C84.48 28.4293 83.584 28.056 82.496 28.056H77.92V35.864H82.496ZM96.155 27.96C95.7283 28.3867 95.2163 28.6 94.619 28.6C94.0217 28.6 93.499 28.3867 93.051 27.96C92.6243 27.512 92.411 26.9893 92.411 26.392C92.411 25.7947 92.6243 25.2827 93.051 24.856C93.4777 24.408 94.0003 24.184 94.619 24.184C95.2377 24.184 95.7603 24.408 96.187 24.856C96.6137 25.2827 96.827 25.7947 96.827 26.392C96.827 26.9893 96.603 27.512 96.155 27.96ZM92.891 47V31H96.347V47H92.891ZM108.776 30.584C110.61 30.584 112.093 31.1707 113.224 32.344C114.354 33.5173 114.92 35.128 114.92 37.176V47H111.464V37.528C111.464 36.3333 111.144 35.416 110.504 34.776C109.864 34.136 108.989 33.816 107.88 33.816C106.664 33.816 105.682 34.2 104.936 34.968C104.189 35.7147 103.816 36.8667 103.816 38.424V47H100.36V31H103.816V33.048C104.861 31.4053 106.514 30.584 108.776 30.584ZM127.057 30.584C128.892 30.584 130.374 31.1707 131.505 32.344C132.636 33.5173 133.201 35.128 133.201 37.176V47H129.745V37.528C129.745 36.3333 129.425 35.416 128.785 34.776C128.145 34.136 127.27 33.816 126.161 33.816C124.945 33.816 123.964 34.2 123.217 34.968C122.47 35.7147 122.097 36.8667 122.097 38.424V47H118.641V31H122.097V33.048C123.142 31.4053 124.796 30.584 127.057 30.584ZM149.594 31H153.05V47H149.594V44.696C148.293 46.5093 146.426 47.416 143.994 47.416C141.797 47.416 139.92 46.6053 138.362 44.984C136.805 43.3413 136.026 41.3467 136.026 39C136.026 36.632 136.805 34.6373 138.362 33.016C139.92 31.3947 141.797 30.584 143.994 30.584C146.426 30.584 148.293 31.48 149.594 33.272V31ZM140.922 42.68C141.882 43.64 143.088 44.12 144.538 44.12C145.989 44.12 147.194 43.64 148.154 42.68C149.114 41.6987 149.594 40.472 149.594 39C149.594 37.528 149.114 36.312 148.154 35.352C147.194 34.3707 145.989 33.88 144.538 33.88C143.088 33.88 141.882 34.3707 140.922 35.352C139.962 36.312 139.482 37.528 139.482 39C139.482 40.472 139.962 41.6987 140.922 42.68ZM164.631 47.416C162.22 47.416 160.204 46.6053 158.583 44.984C156.983 43.3627 156.183 41.368 156.183 39C156.183 36.6107 156.983 34.616 158.583 33.016C160.204 31.3947 162.22 30.584 164.631 30.584C166.188 30.584 167.607 30.9573 168.887 31.704C170.167 32.4507 171.127 33.4533 171.767 34.712L168.791 36.44C168.428 35.672 167.873 35.0747 167.127 34.648C166.401 34.2 165.559 33.976 164.599 33.976C163.191 33.976 162.007 34.456 161.047 35.416C160.108 36.376 159.639 37.5707 159.639 39C159.639 40.4293 160.108 41.624 161.047 42.584C162.007 43.544 163.191 44.024 164.599 44.024C165.537 44.024 166.38 43.8 167.127 43.352C167.895 42.904 168.471 42.3067 168.855 41.56L171.831 43.256C171.148 44.536 170.167 45.5493 168.887 46.296C167.607 47.0427 166.188 47.416 164.631 47.416ZM174.329 47V23.64H177.785V47H174.329ZM184.517 40.472C184.773 41.688 185.36 42.6267 186.277 43.288C187.195 43.928 188.315 44.248 189.637 44.248C191.472 44.248 192.848 43.5867 193.765 42.264L196.613 43.928C195.035 46.2533 192.699 47.416 189.605 47.416C187.003 47.416 184.901 46.6267 183.301 45.048C181.701 43.448 180.901 41.432 180.901 39C180.901 36.6107 181.691 34.616 183.269 33.016C184.848 31.3947 186.875 30.584 189.349 30.584C191.696 30.584 193.616 31.4053 195.109 33.048C196.624 34.6907 197.381 36.6853 197.381 39.032C197.381 39.3947 197.339 39.8747 197.253 40.472H184.517ZM184.485 37.656H193.893C193.659 36.3547 193.115 35.3733 192.261 34.712C191.429 34.0507 190.448 33.72 189.317 33.72C188.037 33.72 186.971 34.072 186.117 34.776C185.264 35.48 184.72 36.44 184.485 37.656Z" fill="white"/>
</g>
<defs>
<clipPath id="clip0_151_485">
<rect width="199" height="72" fill="white"/>
</clipPath>
</defs>
</svg>
