<svg width="211" height="72" viewBox="0 0 211 72" fill="none" xmlns="http://www.w3.org/2000/svg">
<g clip-path="url(#clip0_151_479)">
<rect width="72" height="72" rx="21.6" fill="#6B30BB"/>
<path d="M37.0033 17.0986L46.0725 24.1843L21.6692 55.4191V55.4191C16.6604 51.5058 15.7723 44.273 19.6856 39.2642L37.0033 17.0986Z" fill="#FFB259"/>
<rect x="48.7477" y="25.9072" width="8.70958" height="24.3859" transform="rotate(38 48.7477 25.9072)" fill="#FFB259"/>
<path d="M94.496 24.6C96.608 24.6 98.368 25.304 99.776 26.712C101.205 28.12 101.92 29.8693 101.92 31.96C101.92 34.0293 101.205 35.7787 99.776 37.208C98.368 38.616 96.608 39.32 94.496 39.32H89.92V47H86.24V24.6H94.496ZM94.496 35.864C95.584 35.864 96.48 35.5013 97.184 34.776C97.888 34.0293 98.24 33.0907 98.24 31.96C98.24 30.8293 97.888 29.9013 97.184 29.176C96.48 28.4293 95.584 28.056 94.496 28.056H89.92V35.864H94.496ZM108.155 27.96C107.728 28.3867 107.216 28.6 106.619 28.6C106.022 28.6 105.499 28.3867 105.051 27.96C104.624 27.512 104.411 26.9893 104.411 26.392C104.411 25.7947 104.624 25.2827 105.051 24.856C105.478 24.408 106 24.184 106.619 24.184C107.238 24.184 107.76 24.408 108.187 24.856C108.614 25.2827 108.827 25.7947 108.827 26.392C108.827 26.9893 108.603 27.512 108.155 27.96ZM104.891 47V31H108.347V47H104.891ZM120.776 30.584C122.61 30.584 124.093 31.1707 125.224 32.344C126.354 33.5173 126.92 35.128 126.92 37.176V47H123.464V37.528C123.464 36.3333 123.144 35.416 122.504 34.776C121.864 34.136 120.989 33.816 119.88 33.816C118.664 33.816 117.682 34.2 116.936 34.968C116.189 35.7147 115.816 36.8667 115.816 38.424V47H112.36V31H115.816V33.048C116.861 31.4053 118.514 30.584 120.776 30.584ZM139.057 30.584C140.892 30.584 142.374 31.1707 143.505 32.344C144.636 33.5173 145.201 35.128 145.201 37.176V47H141.745V37.528C141.745 36.3333 141.425 35.416 140.785 34.776C140.145 34.136 139.27 33.816 138.161 33.816C136.945 33.816 135.964 34.2 135.217 34.968C134.47 35.7147 134.097 36.8667 134.097 38.424V47H130.641V31H134.097V33.048C135.142 31.4053 136.796 30.584 139.057 30.584ZM161.594 31H165.05V47H161.594V44.696C160.293 46.5093 158.426 47.416 155.994 47.416C153.797 47.416 151.92 46.6053 150.362 44.984C148.805 43.3413 148.026 41.3467 148.026 39C148.026 36.632 148.805 34.6373 150.362 33.016C151.92 31.3947 153.797 30.584 155.994 30.584C158.426 30.584 160.293 31.48 161.594 33.272V31ZM152.922 42.68C153.882 43.64 155.088 44.12 156.538 44.12C157.989 44.12 159.194 43.64 160.154 42.68C161.114 41.6987 161.594 40.472 161.594 39C161.594 37.528 161.114 36.312 160.154 35.352C159.194 34.3707 157.989 33.88 156.538 33.88C155.088 33.88 153.882 34.3707 152.922 35.352C151.962 36.312 151.482 37.528 151.482 39C151.482 40.472 151.962 41.6987 152.922 42.68ZM176.631 47.416C174.22 47.416 172.204 46.6053 170.583 44.984C168.983 43.3627 168.183 41.368 168.183 39C168.183 36.6107 168.983 34.616 170.583 33.016C172.204 31.3947 174.22 30.584 176.631 30.584C178.188 30.584 179.607 30.9573 180.887 31.704C182.167 32.4507 183.127 33.4533 183.767 34.712L180.791 36.44C180.428 35.672 179.873 35.0747 179.127 34.648C178.401 34.2 177.559 33.976 176.599 33.976C175.191 33.976 174.007 34.456 173.047 35.416C172.108 36.376 171.639 37.5707 171.639 39C171.639 40.4293 172.108 41.624 173.047 42.584C174.007 43.544 175.191 44.024 176.599 44.024C177.537 44.024 178.38 43.8 179.127 43.352C179.895 42.904 180.471 42.3067 180.855 41.56L183.831 43.256C183.148 44.536 182.167 45.5493 180.887 46.296C179.607 47.0427 178.188 47.416 176.631 47.416ZM186.329 47V23.64H189.785V47H186.329ZM196.517 40.472C196.773 41.688 197.36 42.6267 198.277 43.288C199.195 43.928 200.315 44.248 201.637 44.248C203.472 44.248 204.848 43.5867 205.765 42.264L208.613 43.928C207.035 46.2533 204.699 47.416 201.605 47.416C199.003 47.416 196.901 46.6267 195.301 45.048C193.701 43.448 192.901 41.432 192.901 39C192.901 36.6107 193.691 34.616 195.269 33.016C196.848 31.3947 198.875 30.584 201.349 30.584C203.696 30.584 205.616 31.4053 207.109 33.048C208.624 34.6907 209.381 36.6853 209.381 39.032C209.381 39.3947 209.339 39.8747 209.253 40.472H196.517ZM196.485 37.656H205.893C205.659 36.3547 205.115 35.3733 204.261 34.712C203.429 34.0507 202.448 33.72 201.317 33.72C200.037 33.72 198.971 34.072 198.117 34.776C197.264 35.48 196.72 36.44 196.485 37.656Z" fill="black"/>
</g>
<defs>
<clipPath id="clip0_151_479">
<rect width="211" height="72" fill="white"/>
</clipPath>
</defs>
</svg>
