<svg width="492" height="492" viewBox="0 0 492 492" fill="none" xmlns="http://www.w3.org/2000/svg">
<rect width="492" height="492" rx="24" fill="#6B30BB" fill-opacity="0.1"/>
<g clip-path="url(#clip0_132_8107)">
<path d="M435.535 257.558L434.232 267.934L430.997 293.708H366.024C366.532 287.931 367.225 279.616 367.966 270.64C368.039 269.744 368.116 268.842 368.189 267.934C370.047 245.371 372.08 219.838 372.08 219.838L380.622 221.43L397.195 224.511L403.948 225.766L422.032 229.134C431.048 230.809 437.25 243.864 435.535 257.558Z" fill="#F2F2F2"/>
<path d="M386.389 178.085L394.379 192.067L379.022 202.951L372.471 185.764L386.389 178.085Z" fill="#FFB6B6"/>
<path d="M376.217 191.313C387.149 191.313 396.011 182.451 396.011 171.519C396.011 160.587 387.149 151.725 376.217 151.725C365.285 151.725 356.423 160.587 356.423 171.519C356.423 182.451 365.285 191.313 376.217 191.313Z" fill="#FFB6B6"/>
<path d="M374.796 175.944C373.224 173.552 373.841 172.301 372.525 171.422C372.525 171.422 371.995 171.068 368.206 170.866C367.358 164.76 366.298 164.019 366.298 164.019C365.078 163.166 363.266 163.443 362.139 163.965C359.756 165.069 360.032 167.454 358.427 167.91C356.21 168.541 352.177 164.987 351.779 160.918C351.455 157.6 353.593 154.376 354.441 154.547C355.282 154.716 357.295 152.146 358.382 152.186C359.125 152.213 362.158 150.894 362.974 150.997C363.865 151.11 366.803 152.643 366.925 152.293C367.776 149.859 367.526 149.183 368.248 148.487C369.527 147.253 371.62 148.112 374.902 148.574C381.657 149.523 382.836 147.296 386.297 148.805C388.046 149.568 389.509 151.624 392.364 155.706C396.357 161.415 398.353 164.269 398.366 167.599C398.379 170.994 396.735 170.778 396.013 175.804C395.209 181.399 396.917 183.958 395.051 185.775C393.609 187.18 390.677 187.514 389.137 186.281C386.5 184.17 389.951 179.076 387.033 175.355C385.242 173.07 381.64 172.054 379.99 173.183C378.124 174.46 379.152 178.207 377.84 178.563C376.716 178.867 375.069 176.361 374.796 175.944Z" fill="#2F2E41"/>
<path d="M420.905 253.903C420.353 263.343 418.16 266.323 417.392 277.472C417.224 279.92 417.123 282.761 417.123 286.149C417.123 287.013 417.128 287.848 417.128 288.664C417.128 290.401 417.094 292.043 416.892 293.708C416.739 295.037 416.475 296.376 416.039 297.787H373.407C373.402 297.777 373.402 297.768 373.397 297.758C373.148 296.674 372.99 295.637 372.87 294.644C372.831 294.327 372.797 294.015 372.769 293.708C372.73 293.348 372.697 292.993 372.663 292.642C372.534 291.246 372.404 289.926 372.097 288.664C371.684 286.922 370.935 285.28 369.4 283.697C368.771 283.049 368.143 282.545 367.528 282.103C367.408 282.022 367.293 281.94 367.173 281.859C365.474 280.692 363.866 279.852 362.474 277.472C362.451 277.438 362.431 277.4 362.412 277.367C362.172 276.949 361.548 275.855 361.097 274.396C360.622 272.879 360.334 270.974 360.852 269.026C362.086 264.409 366.655 263.948 370.388 259.283C370.791 258.779 371.19 258.222 371.569 257.603C373.258 254.858 373.714 252.439 374.252 249.565C374.338 249.099 374.415 248.638 374.477 248.192C374.525 247.856 374.569 247.525 374.602 247.199C374.899 244.458 374.756 242.097 374.405 239.985C373.263 233.07 369.894 228.789 372.274 222.583C373.023 220.635 374.084 219.171 375.154 217.919C377.419 215.265 379.747 213.542 379.344 210.115C378.936 206.66 376.315 206.185 376.023 203.166C375.874 201.64 376.373 200.032 377.309 198.453V198.448C380.304 193.366 387.781 188.687 392.532 188.835C393.41 188.86 394.188 189.056 394.835 189.435C397.182 190.818 396.203 193.836 399.798 198.069C402.471 201.213 405.494 202.47 406.642 203.065C411.186 205.436 414.882 212.428 417.392 221.369C417.411 221.437 417.43 221.504 417.449 221.576C419 227.176 420.094 233.535 420.636 239.985C420.866 242.716 421.001 245.461 421.029 248.178C421.054 250.347 421.006 252.228 420.905 253.903Z" fill="#6B30BB"/>
<path d="M388.981 286.245L388.112 288.664L387.565 290.18L386.298 293.708L384.829 297.787H375.389L376.973 293.708L377.707 291.807L378.926 288.664L380.971 283.385L388.981 286.245Z" fill="#FFB6B6"/>
<path d="M417.541 220.544C417.517 220.856 417.483 221.201 417.449 221.576C417.075 225.386 416.192 232.206 414.901 239.985C414.22 244.089 413.423 248.461 412.525 252.804C410.596 262.177 408.197 271.406 405.485 277.472C405 278.566 404.501 279.555 403.992 280.428C403.604 281.095 403.196 281.753 402.769 282.401C401.387 284.527 399.836 286.543 398.229 288.424C398.166 288.505 398.094 288.582 398.022 288.664C397.763 288.971 397.494 289.273 397.226 289.576C395.911 291.059 394.567 292.441 393.266 293.708C391.683 295.253 390.156 296.621 388.789 297.787H373.46L373.397 297.758L371.19 296.779C371.19 296.779 371.818 296.04 372.87 294.644C373.086 294.36 373.316 294.048 373.566 293.708C373.873 293.29 374.204 292.829 374.559 292.33C375.298 291.284 376.138 290.056 377.04 288.664C378.787 285.971 380.779 282.66 382.79 278.825C383.02 278.379 383.255 277.928 383.49 277.472C383.495 277.458 383.505 277.443 383.509 277.429C383.908 276.651 384.302 275.85 384.695 275.034C388.03 268.094 388.985 262.335 389.259 260.468C389.643 257.829 390.175 254.138 390.032 250.078C389.935 247.4 389.547 244.569 388.621 241.756V241.752C388.429 241.161 388.213 240.571 387.968 239.985C387.531 238.934 387.013 237.898 386.398 236.876C383.687 232.374 381.484 232.187 379.732 227.282C379.214 225.828 378.038 222.545 378.398 219.08V219.075C378.442 218.648 378.513 218.216 378.609 217.784V217.779C378.633 217.659 378.667 217.535 378.701 217.415C378.974 216.354 379.425 215.303 380.112 214.305C381.451 212.366 383.279 211.214 384.915 210.528L384.921 210.523C386.811 209.736 388.443 209.568 388.76 209.539C395.771 208.915 401.209 214.809 404.18 218.029C405.327 219.272 406.378 220.314 407.338 221.163C414.81 227.834 416.859 223.572 417.392 221.369C417.473 221.029 417.517 220.736 417.541 220.544Z" fill="#6B30BB"/>
<path d="M417.564 220.294C417.564 220.318 417.56 220.4 417.541 220.534C417.55 220.462 417.555 220.39 417.56 220.323C417.56 220.309 417.56 220.299 417.564 220.294Z" fill="#6B30BB"/>
<path d="M379.449 321.562H122.188C119.798 321.562 117.85 323.506 117.85 325.896C117.85 328.291 119.798 330.235 122.188 330.235H379.449C381.839 330.235 383.783 328.291 383.783 325.896C383.783 323.506 381.839 321.562 379.449 321.562Z" fill="black" fill-opacity="0.23"/>
<path d="M322.358 343.965H179.274C176.885 343.965 174.941 345.909 174.941 348.299C174.941 350.689 176.884 352.637 179.274 352.637H322.358C324.748 352.637 326.697 350.689 326.697 348.299C326.697 345.909 324.748 343.965 322.358 343.965Z" fill="black" fill-opacity="0.23"/>
<path d="M150.814 179.005L167.028 172.182L173.982 186.438L156.944 193.392L150.814 179.005Z" fill="#FFB6B6"/>
<path opacity="0.1" d="M150.814 179.005L167.028 172.182L173.982 186.438L156.944 193.392L150.814 179.005Z" fill="black"/>
<path d="M153.119 173.573L169.114 192.002C169.114 192.002 157.987 227.121 146.861 230.25C135.734 233.379 115.219 248.679 115.219 248.679L89.4878 231.989L102.005 213.56C102.005 213.56 132.257 172.182 140.254 172.182C148.251 172.182 153.119 173.573 153.119 173.573Z" fill="#6B30BB"/>
<path d="M131.509 293.708H94.276L91.922 290.561L82.3112 277.713L80.0997 274.758C80.0997 274.758 71.7546 259.458 73.4932 245.55C75.2317 231.641 93.3128 228.512 93.3128 228.512H94.057L116.192 247.963L114.871 266.065L121.881 277.713L131.509 293.708Z" fill="#2F2E41"/>
<path d="M101.901 293.708H91.9219V278.93L101.901 293.708Z" fill="#2F2E41"/>
<path d="M317.143 271.273L315.902 277.713L312.821 293.708H250.932C251.415 290.123 252.076 284.963 252.781 279.392C252.851 278.836 252.924 278.276 252.994 277.713C254.763 263.711 256.7 247.865 256.7 247.865L264.837 248.853L280.623 250.765L287.056 251.544L304.281 253.634C312.87 254.673 318.777 262.775 317.143 271.273Z" fill="#F2F2F2"/>
<path d="M404.728 293.708H371.16C371.671 293.106 371.96 292.759 371.96 292.759L382.023 291.097L402.757 287.675C402.757 287.675 403.703 290.119 404.728 293.708Z" fill="#2F2E41"/>
<path d="M262.341 185.96L276.94 206.605L251.476 207.366L248.742 187.964L262.341 185.96Z" fill="#A0616A"/>
<path opacity="0.1" d="M262.341 185.96L276.94 206.605L251.476 207.366L248.742 187.964L262.341 185.96Z" fill="black"/>
<path d="M190.349 228.735C188.476 223.332 184.17 219.919 180.731 221.111C177.292 222.304 176.024 227.65 177.899 233.055C178.618 235.225 179.846 237.19 181.481 238.788L189.706 261.582L200.321 257.494L191.085 235.457C191.38 233.19 191.128 230.885 190.349 228.735Z" fill="#A0616A"/>
<path d="M289.165 218.216L289.145 239.256L287.188 247.027L283.161 263.012L280.23 277.713L278.046 288.666L277.267 292.578C276.68 292.971 276.096 293.346 275.511 293.708H224.651C221.762 291.973 220.145 290.624 220.145 290.624C220.145 290.624 220.945 289.873 221.859 288.666C223.403 286.628 225.27 283.29 224.126 280.102C223.886 279.434 223.824 278.621 223.897 277.713C224.363 271.725 230.642 261.6 230.642 261.6L229.342 246.572L228.772 239.986L232.792 207.875L245.898 200.256L248.16 200.037L270.494 198.831L279.725 199.363L280.146 199.478L289.165 218.216Z" fill="#CCCCCC"/>
<path d="M290.157 293.708H279.03L278.54 288.666L278.529 288.565L281.68 288.35L289.875 287.79L290.018 290.808L290.129 293.124L290.157 293.708Z" fill="#FFB6B6"/>
<path d="M292.896 223.303L297.57 250.727L293.756 277.713L293.161 281.914L292.111 289.33L291.788 291.611L291.798 291.858L291.878 293.708H278.665L278.178 288.666L278.137 288.214L277.142 277.887L277.125 277.713L275.014 255.814L279.152 239.986L279.458 238.821V238.818L281.258 211.717L279.864 199.401L279.85 199.286C279.878 199.304 279.902 199.321 279.93 199.339C280.003 199.384 280.076 199.429 280.146 199.478C288.268 204.631 293.108 213.671 292.896 223.303Z" fill="#CCCCCC"/>
<path d="M237.526 213.13L232.445 207.874C232.445 207.874 221.568 212.778 221.026 215.498C220.484 218.219 201.279 258.176 201.279 258.176L192.923 235.86L182.047 243.121C182.047 243.121 190.774 277.768 198.936 279.394C207.097 281.021 234.451 238.387 234.451 238.387L237.526 213.13Z" fill="#CCCCCC"/>
<path d="M443.84 277.472H48.1552C42.5546 277.472 38 282.031 38 287.632C38 293.232 42.5546 297.787 48.1552 297.787H443.84C449.441 297.787 454 293.233 454 287.632C454 282.031 449.441 277.472 443.84 277.472Z" fill="black" fill-opacity="0.23"/>
<path d="M286.849 246.513L286.08 282.413C286.006 285.888 283.167 288.666 279.691 288.666H213.653C210.259 288.666 207.457 286.013 207.272 282.624L205.31 246.725C205.109 243.064 208.024 239.986 211.69 239.986H280.46C284.043 239.986 286.926 242.931 286.849 246.513Z" fill="#3F3D56"/>
<path d="M180.241 187.671C188.967 187.671 196.041 180.597 196.041 171.871C196.041 163.145 188.967 156.071 180.241 156.071C171.515 156.071 164.441 163.145 164.441 171.871C164.441 180.597 171.515 187.671 180.241 187.671Z" fill="#FFB6B6"/>
<path d="M153.815 213.212L155.553 231.989L167.376 279.625L157.162 283.205L139.906 231.293L137.523 210.43L153.815 213.212Z" fill="#FFB6B6"/>
<path d="M149.112 246.513L148.343 282.413C148.268 285.888 145.43 288.666 141.954 288.666H75.9156C72.5218 288.666 69.72 286.013 69.5348 282.624L67.5722 246.725C67.3721 243.064 70.2867 239.986 73.953 239.986H142.723C146.306 239.986 149.189 242.931 149.112 246.513Z" fill="#3F3D56"/>
<path d="M169.258 288.909C176.15 288.909 181.736 286.438 181.736 283.39C181.736 280.342 176.15 277.871 169.258 277.871C162.367 277.871 156.78 280.342 156.78 283.39C156.78 286.438 162.367 288.909 169.258 288.909Z" fill="#FFB6B6"/>
<path d="M129.301 216.083L136.429 178.093C136.429 178.093 156.249 175.311 156.945 181.918C157.64 188.524 156.448 220.812 156.448 220.812L129.301 216.083Z" fill="#6B30BB"/>
<path d="M173.863 174.356C173.863 174.356 183.637 170.867 187.76 168.99C191.883 167.114 200.073 180.204 200.256 173.291C200.438 166.377 197.608 163.478 197.608 163.478C197.608 163.478 196.901 148.353 181.663 150.244C181.663 150.244 185.015 142.677 174.013 141.507C163.011 140.337 145.894 166.905 147.427 170.875C148.96 174.845 150.798 178.128 146.449 182.373C142.1 186.619 133.956 210.578 140.152 217.025C146.348 223.472 146.755 226.27 142.51 230.281C138.264 234.292 128.23 243.014 139.08 244.528C149.929 246.042 138.087 244.911 146.175 237.796C154.264 230.681 166.067 230.972 161.66 219.557C157.253 208.142 164.909 191.784 163.951 189.303C162.993 186.821 166.098 171.063 166.098 171.063C166.098 171.063 173.323 170.002 173.863 174.356Z" fill="#2F2E41"/>
<path d="M254.536 193.433C264.035 193.433 271.735 185.732 271.735 176.233C271.735 166.734 264.035 159.034 254.536 159.034C245.037 159.034 237.337 166.734 237.337 176.233C237.337 185.732 245.037 193.433 254.536 193.433Z" fill="#A0616A"/>
<path d="M255.909 153.11C255.411 153.401 254.744 152.961 254.585 152.407C254.425 151.854 254.611 151.266 254.795 150.72L255.723 147.971C256.382 146.022 257.08 144.004 258.505 142.521C260.657 140.281 264.076 139.712 267.154 140.124C271.106 140.654 275.006 142.795 276.844 146.334C278.682 149.873 277.899 154.812 274.579 157.02C279.312 162.444 280.961 168.49 280.701 175.685C280.44 182.879 272.6 189.5 267.487 194.568C266.345 193.876 265.307 190.633 265.935 189.454C266.563 188.276 265.664 186.911 266.441 185.825C267.219 184.74 267.869 186.468 267.083 185.389C266.587 184.708 268.523 183.141 267.786 182.734C264.219 180.762 263.033 176.317 260.793 172.912C258.091 168.806 253.467 166.025 248.573 165.564C245.877 165.31 243.03 165.77 240.82 167.335C238.611 168.9 237.18 171.697 237.693 174.356C236.366 173.008 235.705 171.034 235.954 169.159C236.203 167.284 237.357 165.551 238.99 164.597C237.997 161.313 238.847 157.537 241.152 154.996C243.456 152.455 252.804 152.888 256.169 153.557L255.909 153.11Z" fill="#2F2E41"/>
<path d="M256.431 165.664C260.887 166.145 264.105 170.004 266.821 173.569C268.387 175.624 270.027 177.893 269.988 180.476C269.948 183.087 268.202 185.327 267.368 187.802C266.004 191.847 267.333 196.66 270.58 199.432C267.372 200.04 263.904 197.635 263.35 194.417C262.705 190.67 265.545 187.055 265.209 183.268C264.912 179.932 262.284 177.365 260.049 174.871C257.814 172.377 255.715 169.067 256.743 165.879L256.431 165.664Z" fill="#2F2E41"/>
<path d="M323.047 279.646C318.634 282.156 316.351 286.468 317.95 289.277C319.548 292.086 324.42 292.327 328.835 289.815C330.613 288.836 332.13 287.445 333.259 285.76L351.826 274.887L346.538 266.282L328.796 277.915C326.769 278.024 324.798 278.618 323.047 279.646Z" fill="#FFB6B6"/>
<path d="M385.911 199.914C385.356 199.694 380.488 197.85 376.043 200.284C370.938 203.08 370.149 209.463 369.873 211.702C369.234 216.874 371.116 218.033 371.513 223.269C372.257 233.064 374.217 221.889 371.087 226.36C370.003 227.908 358.936 251.891 352.833 256.589C340.963 265.725 333.425 272.16 333.425 272.16L342.03 281.507C342.03 281.507 355.628 277.884 367.647 270.08C379.975 262.075 386.139 258.073 390.908 250.243C391.319 249.568 401.145 232.881 395.868 214.429C394.664 210.22 392.459 202.508 385.911 199.914Z" fill="#6B30BB"/>
<path d="M430.346 246.513L429.577 282.413C429.502 285.888 426.664 288.666 423.188 288.666H357.149C353.756 288.666 350.954 286.013 350.769 282.624L348.806 246.725C348.606 243.064 351.521 239.986 355.187 239.986H423.957C427.54 239.986 430.423 242.931 430.346 246.513Z" fill="#3F3D56"/>
</g>
<defs>
<clipPath id="clip0_132_8107">
<rect width="416" height="212.637" fill="white" transform="translate(38 140)"/>
</clipPath>
</defs>
</svg>
