<svg width="492" height="492" viewBox="0 0 492 492" fill="none" xmlns="http://www.w3.org/2000/svg">
<rect width="492" height="492" rx="24" fill="#6B30BB" fill-opacity="0.1"/>
<g clip-path="url(#clip0_132_8151)">
<path d="M255.393 118.777H165.593V217.267H255.393V118.777Z" fill="#F2F2F2"/>
<path d="M264.446 109.362H174.646V207.852H264.446V109.362Z" stroke="#3F3D56" stroke-width="0.724194" stroke-miterlimit="10"/>
<path d="M184.195 196.741H179.353V201.583H184.195V196.741Z" fill="#6B30BB"/>
<path d="M191.189 196.741H186.347V201.583H191.189V196.741Z" fill="#3F3D56"/>
<path d="M198.182 196.741H193.34V201.583H198.182V196.741Z" fill="#575A89"/>
<path d="M252.497 198.844H233.668V199.607H252.497V198.844Z" fill="#3F3D56"/>
<path d="M252.497 201.134H233.668V201.897H252.497V201.134Z" fill="#3F3D56"/>
<path d="M252.497 203.424H233.668V204.187H252.497V203.424Z" fill="#3F3D56"/>
<path d="M219.546 126.743V134.709C224.273 134.709 228.893 136.111 232.823 138.737C236.753 141.363 239.816 145.095 241.625 149.462C243.434 153.829 243.907 158.634 242.985 163.27C242.063 167.906 239.787 172.164 236.445 175.506L242.078 181.139C246.534 176.683 249.569 171.005 250.798 164.824C252.028 158.643 251.397 152.236 248.985 146.413C246.573 140.591 242.489 135.614 237.249 132.113C232.009 128.612 225.848 126.743 219.546 126.743Z" fill="#3F3D56"/>
<path d="M242.078 181.139L236.445 175.506C232.359 179.593 226.93 182.06 221.165 182.451C215.399 182.842 209.687 181.13 205.087 177.632L200.266 183.976C206.4 188.639 214.016 190.92 221.704 190.399C229.391 189.877 236.629 186.587 242.078 181.139Z" fill="#575A89"/>
<path d="M195.648 158.607C195.648 152.269 198.166 146.19 202.647 141.709C207.129 137.227 213.208 134.709 219.546 134.709V126.743C212.876 126.743 206.373 128.836 200.956 132.728C195.538 136.619 191.479 142.113 189.349 148.435C187.22 154.756 187.128 161.586 189.086 167.963C191.045 174.339 194.955 179.94 200.266 183.976L205.087 177.632C202.152 175.405 199.771 172.529 198.134 169.228C196.496 165.927 195.645 162.292 195.648 158.607Z" fill="#6B30BB"/>
<path d="M279.336 317.894C276.953 317.894 274.593 317.425 272.391 316.512C270.189 315.6 268.188 314.264 266.503 312.578C264.817 310.893 263.481 308.892 262.569 306.69C261.656 304.488 261.187 302.128 261.187 299.745V278.606C261.187 236.311 295.475 202.023 337.77 202.023C380.066 202.023 414.354 236.311 414.354 278.606V295.224C414.354 298.201 413.768 301.149 412.628 303.9C411.489 306.65 409.819 309.149 407.714 311.254C405.609 313.359 403.11 315.029 400.36 316.168C397.609 317.308 394.661 317.894 391.684 317.894" fill="#F2F2F2"/>
<path d="M399.289 340.706V339.982C405.203 339.975 410.873 337.623 415.055 333.441C419.237 329.259 421.59 323.589 421.596 317.674V274.261C421.596 232.233 387.404 198.04 345.375 198.04C303.346 198.04 269.153 232.233 269.153 274.261V322.195C269.159 326.911 271.034 331.432 274.369 334.766C277.704 338.101 282.225 339.977 286.94 339.982V340.706C282.033 340.701 277.327 338.748 273.857 335.278C270.387 331.808 268.435 327.103 268.429 322.195V274.261C268.429 231.833 302.947 197.316 345.375 197.316C387.803 197.316 422.32 231.833 422.32 274.261V317.674C422.313 323.781 419.885 329.635 415.567 333.953C411.249 338.27 405.395 340.699 399.289 340.706Z" fill="#3F3D56"/>
<path d="M422.682 312.824H268.067V376.554H422.682V312.824Z" fill="#3F3D56"/>
<path d="M369.002 247.319L354.246 257.81L364.736 272.566L379.492 262.075L369.002 247.319Z" fill="#6B30BB"/>
<path d="M370.189 243.365L355.433 253.855L365.923 268.611L380.679 258.121L370.189 243.365Z" stroke="#3F3D56" stroke-width="0.724194" stroke-miterlimit="10"/>
<path d="M341.573 240.405C345.772 240.405 349.177 237.001 349.177 232.801C349.177 228.602 345.772 225.197 341.573 225.197C337.373 225.197 333.969 228.602 333.969 232.801C333.969 237.001 337.373 240.405 341.573 240.405Z" fill="#6B30BB"/>
<path d="M339.4 239.319C343.6 239.319 347.004 235.914 347.004 231.715C347.004 227.515 343.6 224.111 339.4 224.111C335.201 224.111 331.796 227.515 331.796 231.715C331.796 235.914 335.201 239.319 339.4 239.319Z" stroke="#3F3D56" stroke-width="0.724194" stroke-miterlimit="10"/>
<path d="M319.099 263.188L328.2 268.426L337.3 273.665L328.213 278.927L319.126 284.19L319.112 273.689L319.099 263.188Z" fill="#6B30BB"/>
<path d="M317.636 267.165L326.737 272.404L335.838 277.642L326.751 282.905L317.663 288.167L317.65 277.666L317.636 267.165Z" stroke="#3F3D56" stroke-width="0.724194" stroke-miterlimit="10"/>
<path d="M281.984 246.135C283.364 241.205 285.913 236.681 289.416 232.947C292.918 229.214 297.27 226.381 302.101 224.689C303.416 224.237 302.851 222.137 301.524 222.594C296.333 224.393 291.655 227.421 287.888 231.42C284.121 235.418 281.376 240.269 279.889 245.557C279.516 246.907 281.612 247.483 281.984 246.135Z" fill="white"/>
<path d="M277.864 257.999C279.262 257.999 279.264 255.827 277.864 255.827C276.466 255.827 276.464 257.999 277.864 257.999Z" fill="white"/>
<path d="M187.628 235.564L153.804 224.831L140.662 266.248L174.486 276.98L187.628 235.564Z" fill="#F2F2F2"/>
<path d="M172.045 238.557L158.764 234.343L158.531 235.077L171.812 239.292L172.045 238.557Z" fill="#3F3D56"/>
<path d="M177.661 241.832L158.333 235.699L158.1 236.434L177.428 242.567L177.661 241.832Z" fill="#3F3D56"/>
<path d="M170.574 243.191L157.293 238.977L157.06 239.711L170.341 243.926L170.574 243.191Z" fill="#3F3D56"/>
<path d="M168.853 248.616L155.572 244.402L155.339 245.137L168.619 249.351L168.853 248.616Z" fill="#3F3D56"/>
<path d="M176.191 246.466L156.863 240.333L156.63 241.068L175.957 247.201L176.191 246.466Z" fill="#3F3D56"/>
<path d="M175.76 247.823L156.433 241.69L156.199 242.424L175.527 248.557L175.76 247.823Z" fill="#3F3D56"/>
<path d="M175.33 249.179L156.002 243.046L155.769 243.781L175.097 249.913L175.33 249.179Z" fill="#3F3D56"/>
<path d="M161.483 249.886L154.532 247.68L153.923 249.602L160.874 251.807L161.483 249.886Z" fill="#6B30BB"/>
<path d="M117.435 383.162C143.632 383.162 164.869 380.406 164.869 377.006C164.869 373.607 143.632 370.851 117.435 370.851C91.2372 370.851 70 373.607 70 377.006C70 380.406 91.2372 383.162 117.435 383.162Z" fill="#3F3D56"/>
<path d="M95.0293 206.594L93.4536 210.337L95.2262 234.563C95.2262 234.563 94.2415 235.941 95.2262 236.926C96.211 237.911 96.0141 238.305 96.0141 238.305C96.0141 238.305 94.4384 238.305 95.2262 239.487C96.0141 240.668 96.0141 241.259 96.0141 241.259L95.6202 242.441C95.6202 242.441 96.408 243.426 96.408 244.214C96.408 245.002 101.529 269.227 101.529 269.227L106.453 259.576L103.695 221.169L95.0293 206.594Z" fill="#6B30BB"/>
<path d="M145.591 268.2C145.591 268.2 156.344 267.766 159.773 271.559C163.202 275.353 146.303 272.609 145.347 271.54C144.391 270.471 145.591 268.2 145.591 268.2Z" fill="#FFB9B9"/>
<path d="M92.469 363.768L90.3024 370.859C90.3024 370.859 87.1511 377.752 91.4842 378.737C95.8173 379.722 99.9534 375.98 99.9534 375.98V371.253L101.529 363.768H92.469Z" fill="#2F2E41"/>
<path d="M127.922 363.768C127.922 363.768 126.937 377.161 129.103 377.949C131.27 378.737 138.951 378.934 139.148 377.949C139.345 376.964 141.709 375.98 139.936 374.601C138.163 373.222 136.982 365.147 136.982 365.147L127.922 363.768Z" fill="#2F2E41"/>
<path d="M108.029 236.926V242.835C108.029 242.835 101.529 256.425 99.1654 277.894C96.8019 299.363 88.7266 364.753 90.6962 365.935C92.6658 367.116 113.937 367.904 114.528 366.329C115.119 364.753 115.71 318.665 115.71 318.665L122.997 286.166C122.997 286.166 124.376 297.787 125.558 299.756C126.74 301.726 123.588 365.738 125.558 366.723C127.528 367.707 154.117 369.48 153.723 366.329C153.329 363.177 144.466 277.697 144.466 277.697C144.466 277.697 139.936 237.32 138.557 236.926C137.179 236.533 124.573 236.139 122.604 236.533C120.634 236.926 108.029 236.926 108.029 236.926Z" fill="#2F2E41"/>
<path d="M122.998 188.081C129.198 188.081 134.224 183.054 134.224 176.854C134.224 170.654 129.198 165.627 122.998 165.627C116.797 165.627 111.771 170.654 111.771 176.854C111.771 183.054 116.797 188.081 122.998 188.081Z" fill="#FFB9B9"/>
<path d="M125.361 186.308C125.361 186.308 119.649 195.171 121.028 197.535C122.407 199.898 106.453 195.171 106.453 195.171C106.453 195.171 116.104 183.353 115.907 181.975C115.71 180.596 125.361 186.308 125.361 186.308Z" fill="#FFB9B9"/>
<path d="M137.179 199.504C137.179 199.504 126.74 196.156 125.361 194.777C124.477 193.874 123.685 192.884 122.997 191.823C122.997 191.823 110.392 190.05 109.998 190.05C109.604 190.05 106.65 193.595 105.862 194.383C105.074 195.171 95.0293 200.489 95.0293 201.868C95.0293 203.246 93.4536 210.337 93.4536 210.337C93.4536 210.337 96.9989 217.624 99.1654 219.2C101.332 220.776 101.923 220.382 102.12 222.942C102.317 225.503 105.074 229.639 105.074 229.639C105.074 229.639 106.847 234.169 106.453 235.548C106.059 236.926 104.286 238.108 108.423 237.714C112.559 237.32 133.042 238.502 133.042 236.335C133.042 234.169 129.103 213.488 129.103 213.488L137.179 199.504Z" fill="#6B30BB"/>
<path d="M133.436 199.898L137.178 199.504C137.178 199.504 138.557 200.292 138.754 207.973C138.951 215.655 138.951 234.169 140.33 235.745C141.709 237.32 147.42 261.743 147.42 261.743C147.42 261.743 148.996 262.137 148.996 263.516C148.996 264.895 150.769 266.076 149.981 267.652C149.193 269.228 150.769 268.834 149.784 269.819C148.799 270.803 144.072 272.773 143.875 271.591C143.678 270.409 144.466 270.212 143.678 269.819C142.89 269.425 142.89 269.228 142.693 267.849C142.496 266.47 140.724 265.092 140.921 264.501C141.118 263.91 132.254 246.774 132.254 246.183C132.254 245.593 131.664 243.426 130.876 243.032C130.088 242.638 128.906 242.244 129.497 241.259C130.088 240.275 127.921 210.731 127.921 210.731L133.436 199.898Z" fill="#6B30BB"/>
<path d="M132.491 169.734C129.049 165.997 123.642 164.013 118.684 165.125C113.726 166.237 109.551 170.638 109.164 175.705C109.084 176.741 109.15 177.8 108.882 178.804C108.431 180.493 107.089 181.831 106.616 183.514C106.299 184.641 106.393 185.855 106.057 186.977C105.437 189.049 103.516 190.401 102.052 191.994C101.459 192.577 101.018 193.298 100.769 194.092C100.641 194.796 100.608 195.514 100.672 196.227C100.734 200.069 99.3056 203.786 96.6865 206.598C98.2265 205.454 99.8903 204.487 101.646 203.715C100.776 206.487 101.572 209.767 103.762 211.676C105.952 213.585 109.46 213.881 111.829 212.198C113.235 211.198 114.149 209.663 115.022 208.174L118.326 202.536C118.924 201.516 119.548 200.467 120.503 199.77C121.262 199.216 122.184 198.922 122.948 198.375C124.875 196.996 125.393 194.298 125.034 191.955C124.675 189.613 123.622 187.438 123.018 185.147C122.54 183.335 122.39 181.258 123.465 179.722C124.892 177.684 127.824 177.424 129.763 175.865C130.493 175.279 130.819 174.564 131.342 173.83C131.824 173.152 131.947 173.395 132.695 173.364C134.749 173.279 133.252 170.56 132.491 169.734Z" fill="#2F2E41"/>
<path d="M122.685 182.922C123.185 182.922 123.59 181.95 123.59 180.75C123.59 179.55 123.185 178.577 122.685 178.577C122.185 178.577 121.78 179.55 121.78 180.75C121.78 181.95 122.185 182.922 122.685 182.922Z" fill="#FFB9B9"/>
<path d="M222.443 337.447C228.842 337.447 234.03 332.259 234.03 325.86C234.03 319.461 228.842 314.273 222.443 314.273C216.044 314.273 210.856 319.461 210.856 325.86C210.856 332.259 216.044 337.447 222.443 337.447Z" fill="#F2F2F2"/>
<path d="M106.572 138.294C112.971 138.294 118.159 133.106 118.159 126.707C118.159 120.307 112.971 115.12 106.572 115.12C100.173 115.12 94.9849 120.307 94.9849 126.707C94.9849 133.106 100.173 138.294 106.572 138.294Z" fill="#F2F2F2"/>
<path d="M349.177 165.451C355.576 165.451 360.764 160.263 360.764 153.864C360.764 147.465 355.576 142.277 349.177 142.277C342.778 142.277 337.59 147.465 337.59 153.864C337.59 160.263 342.778 165.451 349.177 165.451Z" fill="#F2F2F2"/>
</g>
<defs>
<clipPath id="clip0_132_8151">
<rect width="352.682" height="274.162" fill="white" transform="translate(70 109)"/>
</clipPath>
</defs>
</svg>
