<svg width="492" height="492" viewBox="0 0 492 492" fill="none" xmlns="http://www.w3.org/2000/svg">
<rect width="492" height="492" rx="24" fill="#6B30BB" fill-opacity="0.1"/>
<g clip-path="url(#clip0_132_8195)">
<path d="M335.231 357.299L339.502 341.439C347.809 339.119 356.558 338.863 364.988 340.691C351.294 347.592 348.685 366.178 337.998 377.174C334.638 380.578 330.555 383.182 326.052 384.794C321.549 386.406 316.742 386.983 311.985 386.484L300.968 390.268C301.285 382.554 303.271 375 306.789 368.127C310.306 361.254 315.272 355.225 321.344 350.457C324.777 347.815 328.529 345.616 332.511 343.912C333.473 350.553 335.231 357.299 335.231 357.299Z" fill="#F2F2F2"/>
<path d="M135.584 334.749L128.376 307.982C114.354 304.067 99.5887 303.634 85.3613 306.72C108.473 318.366 112.877 349.735 130.914 368.294C136.585 374.039 143.475 378.434 151.075 381.155C158.675 383.875 166.79 384.85 174.818 384.008L193.412 390.393C192.876 377.373 189.525 364.624 183.588 353.025C177.651 341.425 169.269 331.25 159.021 323.201C153.228 318.743 146.895 315.032 140.174 312.156C138.55 323.363 135.584 334.749 135.584 334.749Z" fill="#F2F2F2"/>
<path d="M321.718 170.622V127.157C321.718 120.485 319.068 114.086 314.35 109.368C309.632 104.65 303.234 102 296.562 102H204.474C197.802 102 191.403 104.65 186.686 109.368C181.968 114.086 179.317 120.485 179.317 127.157V365.612C179.317 372.284 181.968 378.682 186.686 383.4C191.403 388.118 197.802 390.768 204.474 390.768H296.562C303.234 390.768 309.632 388.118 314.35 383.4C319.068 378.682 321.718 372.284 321.718 365.612V201.562C321.927 201.562 322.133 201.521 322.325 201.441C322.518 201.361 322.693 201.244 322.84 201.097C322.987 200.95 323.104 200.775 323.184 200.582C323.264 200.39 323.305 200.183 323.305 199.975V172.209C323.305 171.788 323.138 171.384 322.84 171.087C322.543 170.789 322.139 170.622 321.718 170.622Z" fill="#3F3D56"/>
<path d="M316.364 127.329V365.44C316.365 370.386 314.414 375.132 310.935 378.648C307.456 382.163 302.731 384.164 297.785 384.216C297.717 384.223 297.648 384.226 297.579 384.225H205.043C200.062 384.224 195.284 382.245 191.761 378.722C188.239 375.199 186.259 370.422 186.259 365.44V127.329C186.259 122.347 188.238 117.57 191.761 114.047C195.284 110.524 200.062 108.545 205.043 108.544H216.273C215.721 109.9 215.511 111.371 215.661 112.827C215.81 114.283 216.316 115.68 217.132 116.895C217.949 118.11 219.051 119.105 220.343 119.794C221.634 120.483 223.075 120.844 224.539 120.845H277.296C278.758 120.841 280.197 120.478 281.487 119.788C282.776 119.098 283.877 118.103 284.692 116.888C285.507 115.674 286.012 114.278 286.162 112.824C286.312 111.369 286.103 109.9 285.553 108.544H297.579C302.561 108.545 307.339 110.524 310.862 114.047C314.384 117.57 316.364 122.347 316.364 127.329Z" fill="white"/>
<path d="M179.826 194.938C179.258 194.938 178.714 194.712 178.313 194.31C177.911 193.909 177.685 193.365 177.685 192.797V178.235C177.685 177.668 177.911 177.124 178.313 176.723C178.714 176.322 179.259 176.097 179.826 176.097C180.393 176.097 180.938 176.322 181.339 176.723C181.741 177.124 181.967 177.668 181.967 178.235V192.797C181.967 193.365 181.741 193.909 181.339 194.31C180.938 194.712 180.394 194.938 179.826 194.938Z" fill="#3F3D56"/>
<path d="M179.397 166.671C178.83 166.671 178.285 166.445 177.884 166.043C177.482 165.642 177.257 165.098 177.256 164.53V149.968C177.257 149.401 177.483 148.857 177.884 148.456C178.286 148.055 178.83 147.83 179.397 147.83C179.965 147.83 180.509 148.055 180.91 148.456C181.312 148.857 181.538 149.401 181.539 149.968V164.53C181.538 165.098 181.312 165.642 180.911 166.043C180.509 166.445 179.965 166.671 179.397 166.671Z" fill="#3F3D56"/>
<path d="M236.36 110.994C236.361 110.426 236.587 109.882 236.988 109.48C237.39 109.079 237.934 108.853 238.502 108.853H253.064C253.631 108.853 254.175 109.079 254.576 109.481C254.977 109.882 255.202 110.427 255.202 110.994C255.202 111.561 254.977 112.106 254.576 112.507C254.175 112.909 253.631 113.135 253.064 113.135H238.502C237.934 113.135 237.39 112.909 236.988 112.507C236.587 112.106 236.361 111.562 236.36 110.994Z" fill="white"/>
<path d="M179.826 219.779C179.258 219.778 178.714 219.552 178.313 219.151C177.911 218.75 177.685 218.205 177.685 217.638V203.076C177.685 202.508 177.911 201.965 178.313 201.564C178.714 201.163 179.259 200.938 179.826 200.938C180.393 200.938 180.938 201.163 181.339 201.564C181.741 201.965 181.967 202.508 181.967 203.076V217.638C181.967 218.205 181.741 218.75 181.34 219.151C180.938 219.552 180.394 219.778 179.826 219.779Z" fill="#3F3D56"/>
<path d="M261.201 113.135C262.384 113.135 263.342 112.177 263.342 110.994C263.342 109.811 262.384 108.853 261.201 108.853C260.018 108.853 259.06 109.811 259.06 110.994C259.06 112.177 260.018 113.135 261.201 113.135Z" fill="white"/>
<path d="M241.258 374.99L247.021 374.989L249.763 352.759H241.257L241.258 374.99Z" fill="#9E616A"/>
<path d="M239.788 373.108L241.41 373.108L247.744 370.532L251.138 373.108C253.057 373.108 254.897 373.87 256.254 375.226C257.61 376.583 258.372 378.423 258.372 380.341V380.576L239.788 380.577L239.788 373.108Z" fill="#2F2E41"/>
<path d="M268.033 374.99L273.797 374.989L276.538 352.759H268.032L268.033 374.99Z" fill="#9E616A"/>
<path d="M266.563 373.108L268.186 373.108L274.519 370.532L277.914 373.108H277.914C279.833 373.108 281.672 373.87 283.029 375.226C284.385 376.583 285.148 378.423 285.148 380.341V380.576L266.564 380.577L266.563 373.108Z" fill="#2F2E41"/>
<path d="M272.641 253.333L227.357 254.514L228.145 276.565C228.145 276.565 227.357 282.471 228.932 284.047C230.508 285.622 231.295 285.622 230.508 288.378C229.72 291.134 233.881 295.636 233.376 296.142C232.87 296.647 231.689 299.403 231.689 299.403L235.627 321.848C235.627 321.848 238.383 360.831 239.17 361.619C239.958 362.406 240.746 361.619 239.958 363.587C239.17 365.556 238.383 364.769 239.17 365.556C239.868 366.308 240.525 367.097 241.139 367.919H250.659C250.659 367.919 251.377 363.981 251.377 363.587C251.377 363.194 252.165 360.831 252.165 360.437C252.165 360.044 251.469 359.347 251.469 359.347C251.228 358.547 251.066 357.725 250.983 356.893C250.983 356.106 248.621 325.786 248.621 325.786L253.346 286.409L264.765 324.998C264.765 324.998 264.765 358.862 265.553 359.65C266.34 360.437 266.34 360.043 265.947 361.619C265.553 363.194 263.978 362.8 265.159 363.981C266.34 365.162 266.734 363.194 266.34 365.162L265.947 367.131L277.76 367.3C277.76 367.3 279.335 363.981 278.547 362.8C277.76 361.619 277.807 361.941 278.768 360.008C279.728 358.075 280.122 357.681 279.728 357.287C279.335 356.893 279.335 354.799 279.335 354.799L277.366 317.123C277.366 317.123 276.972 277.353 276.972 276.171C276.942 275.563 277.054 274.957 277.299 274.4V272.796L275.791 267.115L272.641 253.333Z" fill="#2F2E41"/>
<path d="M237.214 174.248C243.955 174.248 249.42 168.783 249.42 162.041C249.42 155.3 243.955 149.834 237.214 149.834C230.472 149.834 225.007 155.3 225.007 162.041C225.007 168.783 230.472 174.248 237.214 174.248Z" fill="#9E616A"/>
<path d="M231.667 170.344L231.173 169.948C231.164 169.941 230.226 169.197 229.331 169.327C229.127 169.361 228.932 169.438 228.76 169.553C228.588 169.667 228.442 169.817 228.332 169.992C228.269 170.089 228.179 170.164 228.073 170.21C227.967 170.255 227.85 170.267 227.737 170.246C226.576 170.063 224.479 166.626 223.422 163.174C222.771 161.046 222.003 157.189 224.118 155.133C224.282 154.202 225.97 145.814 233.388 145.581C241.021 145.338 246.102 146.879 247.328 149.801C247.537 150.298 247.747 150.883 247.954 151.54C248.059 151.86 248.071 152.204 247.99 152.531C247.908 152.858 247.735 153.156 247.491 153.389C247.27 153.604 246.999 153.761 246.703 153.845C246.406 153.93 246.093 153.94 245.791 153.873C245.754 154.248 245.656 154.615 245.5 154.958C244.833 156.404 243.155 157.347 241.225 157.361C240.081 157.345 238.949 157.126 237.881 156.716L240.969 159.092L233.589 158.174L236.006 159.466L235.522 159.696C234.019 160.363 232.779 161.508 231.996 162.954C231.213 164.399 230.931 166.063 231.194 167.686L231.667 170.344Z" fill="#2F2E41"/>
<path d="M270.416 247.498C272.133 244.532 270.498 240.247 270.498 240.247C270.498 240.247 274.941 233.677 273.851 230.875L268.618 190.328C268.618 190.328 266.983 185.966 263.166 183.785C262.119 183.187 256.624 183.422 255.418 183.432L251.503 181.758C251.276 182.589 247.006 173.933 246.984 174.794C244.258 174.794 242.502 175.17 238.26 175.884C230.896 177.125 234.607 183.78 235.073 184.565C234.885 184.577 234.699 184.603 234.515 184.643C233.555 184.823 230.284 187.652 230.284 187.652L224.434 192.848C215.618 199.766 217.592 210.561 217.592 210.561L230.448 223.499L224.816 249.455C224.816 249.455 227.209 253.31 225.972 255.038C224.734 256.766 236.876 256.27 236.876 256.27C245.255 260.005 274.778 256.848 274.778 256.848C274.369 255.78 270.416 247.498 270.416 247.498Z" fill="#E6E6E6"/>
<path d="M83.5663 390.814H407.434C407.584 390.813 407.728 390.753 407.834 390.647C407.939 390.541 407.999 390.397 407.999 390.248C407.999 390.098 407.939 389.954 407.834 389.848C407.728 389.742 407.584 389.682 407.434 389.682H83.5663C83.4164 389.682 83.2729 389.742 83.1671 389.848C83.0614 389.954 83.002 390.098 83.002 390.248C83.002 390.397 83.0614 390.541 83.1671 390.647C83.2729 390.753 83.4164 390.813 83.5663 390.814Z" fill="#CACACA"/>
<path d="M295.991 378.412C295.991 380.879 295.914 383.325 295.758 385.751C295.691 385.759 295.622 385.762 295.554 385.76H203.021C198.834 385.76 194.767 384.362 191.466 381.787C188.164 379.213 185.817 375.609 184.797 371.549C184.618 370.84 184.483 370.121 184.393 369.395C184.288 368.593 184.236 367.785 184.236 366.976V260.863C191.356 261.215 198.43 262.214 205.369 263.848C206.048 264.005 206.723 264.171 207.393 264.342C207.436 264.352 207.479 264.366 207.522 264.376C208.201 264.547 208.876 264.727 209.547 264.913C223.852 268.842 237.28 275.453 249.116 284.396C249.796 284.904 250.471 285.427 251.141 285.955L251.269 286.055C252.391 286.939 253.495 287.845 254.582 288.773C254.825 288.978 255.067 289.187 255.305 289.401C255.889 289.905 256.474 290.418 257.044 290.936C269.667 302.297 279.686 316.25 286.419 331.841C286.642 332.35 286.856 332.863 287.07 333.376C287.155 333.586 287.241 333.795 287.326 334.004C287.407 334.194 287.483 334.384 287.559 334.574C293.147 348.513 296.01 363.395 295.991 378.412Z" fill="#3F3D56"/>
<path opacity="0.2" d="M253.294 367.86C253.293 363.414 254.169 359.011 255.87 354.903C257.571 350.795 260.065 347.063 263.209 343.919C266.353 340.775 270.085 338.281 274.193 336.58C278.301 334.879 282.704 334.003 287.15 334.004H287.326C287.24 333.795 287.155 333.586 287.069 333.376C286.856 332.863 286.642 332.35 286.418 331.841H253.294V289.401H255.304C255.067 289.187 254.824 288.978 254.582 288.773C253.493 287.846 252.389 286.94 251.269 286.054L251.141 285.955V287.238H209.546V264.913C208.876 264.727 208.201 264.547 207.521 264.376C207.479 264.366 207.436 264.352 207.393 264.342V287.238H186.261V289.401H207.393V331.841H186.261V334.004H207.393V367.86H186.418C186.508 368.586 186.643 369.305 186.822 370.013H207.393V384.225H209.546V370.013H251.141V384.225H253.294V370.013H289.584V367.86H253.294ZM251.141 367.86H209.546V334.004H251.141V367.86ZM251.141 331.841H209.546V330.995C209.546 319.964 213.929 309.384 221.729 301.583C229.529 293.783 240.109 289.401 251.141 289.401V331.841Z" fill="black"/>
<path d="M228.295 276.382C227.868 275.902 227.55 275.334 227.366 274.718C227.182 274.102 227.135 273.453 227.228 272.817C227.322 272.181 227.554 271.574 227.908 271.037C228.262 270.5 228.729 270.048 229.276 269.711L223.73 247.91L231.313 250.815L235.527 271.402C236.031 272.36 236.167 273.469 235.908 274.52C235.649 275.571 235.014 276.49 234.123 277.104C233.231 277.718 232.146 277.983 231.072 277.85C229.998 277.717 229.01 277.195 228.295 276.382Z" fill="#9E616A"/>
<path d="M218.089 206.415L217.404 215.121C217.404 215.121 216.553 224.686 216.775 226.454C216.998 228.223 217.414 239.024 217.414 239.024L224.631 253.302L232.809 251.121L232.32 244.423L232.809 250.576L233.899 245.124L231.173 235.856L232.809 232.584L231.984 221.604L218.089 206.415Z" fill="#E6E6E6"/>
<path d="M406.144 265.158C405.181 264.016 403.815 263.288 402.33 263.127C402.119 263.104 401.907 263.092 401.694 263.092L292.084 262.99C291.291 262.987 290.505 263.147 289.776 263.46C289.047 263.773 288.39 264.232 287.845 264.809C286.796 265.949 286.222 267.448 286.243 268.998L286.226 286.804C286.217 290.03 286.917 293.218 288.274 296.145C287.516 299.017 286.25 301.73 284.536 304.155C284.003 304.923 283.697 305.826 283.654 306.761C283.611 307.695 283.832 308.623 284.293 309.437C284.753 310.251 285.434 310.919 286.257 311.363C287.08 311.808 288.012 312.011 288.945 311.95C290.1 311.878 291.251 311.747 292.393 311.558C295.716 311.037 298.887 309.802 301.687 307.938C303.841 308.615 306.085 308.961 308.343 308.962L385.417 309.034C388.324 309.045 391.203 308.477 393.889 307.365C396.574 306.252 399.012 304.617 401.06 302.554C405.232 298.295 407.55 292.558 407.508 286.596L407.525 269.119C407.549 267.676 407.06 266.273 406.144 265.158Z" fill="#6B30BB"/>
<path d="M377.506 279.147L316.244 279.09C316.069 279.09 315.895 279.055 315.734 278.988C315.572 278.921 315.425 278.823 315.302 278.699C315.178 278.575 315.08 278.428 315.013 278.266C314.946 278.104 314.912 277.931 314.912 277.756C314.912 277.581 314.947 277.408 315.014 277.246C315.081 277.084 315.18 276.938 315.303 276.814C315.427 276.69 315.574 276.592 315.736 276.525C315.898 276.458 316.071 276.424 316.246 276.424L377.509 276.482C377.862 276.482 378.201 276.623 378.451 276.873C378.701 277.123 378.841 277.462 378.84 277.816C378.84 278.169 378.699 278.508 378.449 278.758C378.199 279.008 377.86 279.148 377.506 279.147Z" fill="white"/>
<path d="M377.497 287.329L316.235 287.272C316.06 287.272 315.887 287.237 315.725 287.17C315.563 287.103 315.417 287.004 315.293 286.881C315.169 286.757 315.071 286.61 315.004 286.448C314.937 286.286 314.903 286.113 314.903 285.938C314.903 285.763 314.938 285.589 315.005 285.428C315.072 285.266 315.171 285.119 315.295 284.995C315.418 284.872 315.566 284.774 315.727 284.707C315.889 284.64 316.062 284.606 316.237 284.606L377.5 284.663C377.853 284.663 378.192 284.804 378.442 285.054C378.692 285.305 378.832 285.644 378.832 285.997C378.831 286.351 378.69 286.69 378.44 286.939C378.19 287.189 377.851 287.329 377.497 287.329Z" fill="white"/>
<path d="M323.366 295.46L316.227 295.453C316.052 295.453 315.879 295.419 315.717 295.352C315.556 295.284 315.409 295.186 315.285 295.062C315.161 294.938 315.063 294.791 314.996 294.629C314.93 294.468 314.895 294.294 314.896 294.119C314.896 293.944 314.93 293.771 314.997 293.609C315.065 293.448 315.163 293.301 315.287 293.177C315.411 293.053 315.558 292.955 315.719 292.889C315.881 292.822 316.055 292.787 316.23 292.788L323.369 292.794C323.722 292.795 324.06 292.936 324.31 293.186C324.559 293.436 324.699 293.775 324.698 294.128C324.698 294.482 324.558 294.82 324.308 295.07C324.058 295.319 323.72 295.46 323.366 295.46Z" fill="white"/>
<path d="M84.5218 196.238C85.4848 195.096 86.8508 194.368 88.3361 194.207C88.5473 194.184 88.7595 194.172 88.9719 194.172L198.582 194.07C199.375 194.067 200.161 194.227 200.89 194.54C201.619 194.853 202.276 195.312 202.821 195.889C203.87 197.03 204.444 198.528 204.424 200.078L204.44 217.884C204.449 221.11 203.75 224.298 202.392 227.225C203.15 230.097 204.416 232.81 206.13 235.235C206.663 236.003 206.969 236.907 207.012 237.841C207.055 238.775 206.834 239.703 206.373 240.517C205.913 241.331 205.232 241.999 204.409 242.443C203.586 242.888 202.654 243.091 201.721 243.03C200.566 242.959 199.415 242.828 198.273 242.638C194.95 242.117 191.779 240.882 188.979 239.018C186.825 239.695 184.581 240.041 182.323 240.042L105.249 240.114C102.342 240.125 99.4626 239.557 96.7771 238.445C94.0916 237.332 91.6541 235.697 89.6064 233.634C85.4341 229.375 83.1159 223.638 83.1578 217.676L83.1415 200.199C83.1172 198.757 83.6064 197.353 84.5218 196.238Z" fill="#6B30BB"/>
<path d="M111.826 208.896C111.826 208.542 111.967 208.203 112.216 207.953C112.466 207.703 112.804 207.562 113.158 207.562L174.42 207.504C174.774 207.504 175.113 207.644 175.363 207.894C175.613 208.144 175.754 208.483 175.754 208.836C175.755 209.19 175.615 209.529 175.365 209.779C175.115 210.029 174.776 210.17 174.423 210.17L113.16 210.227C112.807 210.227 112.468 210.087 112.218 209.837C111.968 209.588 111.827 209.249 111.826 208.896Z" fill="white"/>
<path d="M111.833 217.077C111.833 216.724 111.973 216.385 112.223 216.135C112.473 215.885 112.811 215.744 113.165 215.743L174.427 215.686C174.781 215.685 175.12 215.826 175.37 216.075C175.62 216.325 175.761 216.664 175.761 217.017C175.762 217.371 175.621 217.71 175.372 217.96C175.122 218.211 174.783 218.351 174.429 218.352L113.167 218.409C112.814 218.409 112.475 218.269 112.225 218.019C111.975 217.769 111.834 217.431 111.833 217.077Z" fill="white"/>
<path d="M165.965 225.208C165.965 224.855 166.105 224.516 166.355 224.266C166.604 224.016 166.943 223.875 167.297 223.874L174.436 223.867C174.789 223.867 175.128 224.007 175.379 224.257C175.629 224.507 175.77 224.846 175.77 225.199C175.77 225.553 175.63 225.892 175.38 226.142C175.131 226.392 174.792 226.533 174.438 226.533L167.299 226.54C166.946 226.54 166.607 226.4 166.357 226.15C166.107 225.9 165.966 225.562 165.965 225.208Z" fill="white"/>
<path d="M305.289 155.025C304.678 155.331 304.142 155.767 303.718 156.303C303.294 156.838 302.993 157.46 302.835 158.125C302.678 158.79 302.668 159.481 302.806 160.15C302.944 160.819 303.228 161.449 303.636 161.997L294.316 175.739L302.944 175.851L310.472 162.784C311.346 162.037 311.916 160.995 312.074 159.855C312.231 158.716 311.965 157.559 311.326 156.602C310.688 155.646 309.72 154.957 308.607 154.667C307.495 154.376 306.314 154.504 305.289 155.025Z" fill="#9E616A"/>
<path d="M308.249 167.984L293.892 194.385L293.764 194.393C293.659 194.4 289.091 194.703 283.511 195.005C282.57 195.056 282.016 196.726 281.034 196.775C280.357 196.81 277.861 199.947 277.179 199.98C271.098 200.269 267.61 203.048 265.296 202.831C262.16 202.57 257.982 193.943 255.703 191.772L255.65 191.715L255.642 191.637C255.482 190.054 255.867 188.464 256.733 187.129C257.598 185.794 258.893 184.793 260.403 184.293C267.709 181.915 275.467 181.267 283.065 182.401L287.387 183.052L300.505 165.433L308.249 167.984Z" fill="#E6E6E6"/>
<path d="M385.706 116.861C384.743 115.719 383.377 114.991 381.892 114.83C381.68 114.807 381.468 114.795 381.256 114.795L271.646 114.693C270.852 114.69 270.067 114.85 269.338 115.163C268.609 115.476 267.951 115.935 267.407 116.512C266.357 117.653 265.784 119.151 265.804 120.701L265.787 138.507C265.779 141.733 266.478 144.921 267.835 147.848C267.078 150.72 265.812 153.433 264.098 155.858C263.564 156.626 263.258 157.53 263.215 158.464C263.172 159.398 263.394 160.326 263.854 161.14C264.315 161.954 264.996 162.622 265.819 163.066C266.642 163.511 267.573 163.714 268.507 163.653C269.662 163.582 270.813 163.451 271.955 163.261C275.278 162.74 278.449 161.505 281.248 159.641C283.402 160.319 285.647 160.664 287.904 160.665L364.978 160.737C367.885 160.748 370.765 160.18 373.45 159.068C376.136 157.955 378.573 156.32 380.621 154.257C384.793 149.998 387.112 144.261 387.07 138.299L387.086 120.822C387.11 119.38 386.621 117.976 385.706 116.861Z" fill="#6B30BB"/>
<path d="M357.067 130.85L295.804 130.793C295.629 130.793 295.456 130.759 295.294 130.691C295.133 130.624 294.986 130.526 294.862 130.402C294.739 130.278 294.64 130.131 294.574 129.969C294.507 129.808 294.472 129.634 294.473 129.459C294.473 129.284 294.507 129.111 294.575 128.949C294.642 128.787 294.74 128.641 294.864 128.517C294.988 128.393 295.135 128.295 295.297 128.228C295.458 128.162 295.632 128.127 295.807 128.127L357.069 128.185C357.423 128.185 357.762 128.326 358.011 128.576C358.261 128.826 358.401 129.165 358.401 129.519C358.401 129.872 358.26 130.211 358.01 130.461C357.759 130.711 357.42 130.851 357.067 130.85Z" fill="white"/>
<path d="M357.06 139.032L295.797 138.975C295.444 138.975 295.105 138.834 294.855 138.584C294.606 138.333 294.465 137.994 294.466 137.641C294.466 137.287 294.607 136.948 294.857 136.699C295.107 136.449 295.446 136.309 295.8 136.309L357.062 136.366C357.416 136.367 357.755 136.507 358.004 136.758C358.254 137.008 358.394 137.347 358.394 137.7C358.394 138.054 358.253 138.393 358.003 138.643C357.752 138.892 357.413 139.032 357.06 139.032Z" fill="white"/>
<path d="M302.929 147.163L295.79 147.157C295.615 147.156 295.441 147.122 295.28 147.055C295.118 146.988 294.971 146.889 294.848 146.765C294.724 146.641 294.626 146.494 294.559 146.333C294.492 146.171 294.458 145.997 294.458 145.822C294.458 145.647 294.493 145.474 294.56 145.312C294.627 145.151 294.725 145.004 294.849 144.88C294.973 144.757 295.12 144.659 295.282 144.592C295.444 144.525 295.617 144.491 295.792 144.491L302.931 144.497C303.285 144.498 303.623 144.639 303.872 144.889C304.121 145.14 304.261 145.478 304.261 145.832C304.261 146.185 304.12 146.523 303.87 146.773C303.621 147.023 303.282 147.163 302.929 147.163Z" fill="white"/>
</g>
<defs>
<clipPath id="clip0_132_8195">
<rect width="325" height="288.814" fill="white" transform="translate(83 102)"/>
</clipPath>
</defs>
</svg>
